G04 MADE WITH FRITZING*
G04 WWW.FRITZING.ORG*
G04 DOUBLE SIDED*
G04 HOLES PLATED*
G04 CONTOUR ON CENTER OF CONTOUR VECTOR*
%ASAXBY*%
%FSLAX23Y23*%
%MOIN*%
%OFA0B0*%
%SFA1.0B1.0*%
%ADD10R,1.975260X2.629970X1.959260X2.613970*%
%ADD11C,0.008000*%
%ADD12R,0.001000X0.001000*%
%LNSILK0*%
G90*
G70*
G54D11*
X4Y2626D02*
X1971Y2626D01*
X1971Y4D01*
X4Y4D01*
X4Y2626D01*
D02*
G54D12*
X756Y297D02*
X764Y297D01*
X1145Y297D02*
X1153Y297D01*
X755Y296D02*
X765Y296D01*
X1144Y296D02*
X1154Y296D01*
X754Y295D02*
X766Y295D01*
X1143Y295D02*
X1155Y295D01*
X290Y294D02*
X317Y294D01*
X430Y294D02*
X451Y294D01*
X646Y294D02*
X646Y294D01*
X754Y294D02*
X766Y294D01*
X1035Y294D02*
X1035Y294D01*
X1143Y294D02*
X1155Y294D01*
X1194Y294D02*
X1232Y294D01*
X1328Y294D02*
X1355Y294D01*
X1458Y294D02*
X1485Y294D01*
X1523Y294D02*
X1554Y294D01*
X1597Y294D02*
X1622Y294D01*
X1648Y294D02*
X1648Y294D01*
X1684Y294D02*
X1684Y294D01*
X287Y293D02*
X320Y293D01*
X429Y293D02*
X453Y293D01*
X643Y293D02*
X648Y293D01*
X754Y293D02*
X766Y293D01*
X1033Y293D02*
X1037Y293D01*
X1143Y293D02*
X1155Y293D01*
X1192Y293D02*
X1234Y293D01*
X1325Y293D02*
X1359Y293D01*
X1420Y293D02*
X1425Y293D01*
X1455Y293D02*
X1488Y293D01*
X1519Y293D02*
X1556Y293D01*
X1592Y293D02*
X1623Y293D01*
X1646Y293D02*
X1651Y293D01*
X1682Y293D02*
X1686Y293D01*
X285Y292D02*
X322Y292D01*
X429Y292D02*
X454Y292D01*
X643Y292D02*
X649Y292D01*
X754Y292D02*
X766Y292D01*
X1032Y292D02*
X1038Y292D01*
X1143Y292D02*
X1155Y292D01*
X1191Y292D02*
X1234Y292D01*
X1323Y292D02*
X1360Y292D01*
X1419Y292D02*
X1426Y292D01*
X1453Y292D02*
X1490Y292D01*
X1518Y292D02*
X1557Y292D01*
X1589Y292D02*
X1623Y292D01*
X1645Y292D02*
X1652Y292D01*
X1681Y292D02*
X1687Y292D01*
X284Y291D02*
X323Y291D01*
X429Y291D02*
X455Y291D01*
X642Y291D02*
X649Y291D01*
X754Y291D02*
X766Y291D01*
X1031Y291D02*
X1039Y291D01*
X1143Y291D02*
X1155Y291D01*
X1190Y291D02*
X1234Y291D01*
X1322Y291D02*
X1361Y291D01*
X1419Y291D02*
X1426Y291D01*
X1452Y291D02*
X1491Y291D01*
X1517Y291D02*
X1558Y291D01*
X1587Y291D02*
X1623Y291D01*
X1644Y291D02*
X1653Y291D01*
X1680Y291D02*
X1688Y291D01*
X283Y290D02*
X324Y290D01*
X429Y290D02*
X455Y290D01*
X642Y290D02*
X650Y290D01*
X754Y290D02*
X766Y290D01*
X831Y290D02*
X832Y290D01*
X960Y290D02*
X962Y290D01*
X1031Y290D02*
X1039Y290D01*
X1143Y290D02*
X1155Y290D01*
X1190Y290D02*
X1234Y290D01*
X1321Y290D02*
X1362Y290D01*
X1419Y290D02*
X1426Y290D01*
X1451Y290D02*
X1492Y290D01*
X1516Y290D02*
X1558Y290D01*
X1586Y290D02*
X1623Y290D01*
X1644Y290D02*
X1654Y290D01*
X1680Y290D02*
X1688Y290D01*
X283Y289D02*
X324Y289D01*
X429Y289D02*
X455Y289D01*
X642Y289D02*
X650Y289D01*
X754Y289D02*
X766Y289D01*
X829Y289D02*
X834Y289D01*
X959Y289D02*
X964Y289D01*
X1031Y289D02*
X1039Y289D01*
X1143Y289D02*
X1155Y289D01*
X1190Y289D02*
X1234Y289D01*
X1321Y289D02*
X1363Y289D01*
X1419Y289D02*
X1427Y289D01*
X1451Y289D02*
X1492Y289D01*
X1515Y289D02*
X1558Y289D01*
X1585Y289D02*
X1623Y289D01*
X1644Y289D02*
X1655Y289D01*
X1680Y289D02*
X1688Y289D01*
X282Y288D02*
X325Y288D01*
X429Y288D02*
X455Y288D01*
X642Y288D02*
X650Y288D01*
X754Y288D02*
X766Y288D01*
X828Y288D02*
X835Y288D01*
X958Y288D02*
X965Y288D01*
X1031Y288D02*
X1039Y288D01*
X1143Y288D02*
X1155Y288D01*
X1190Y288D02*
X1234Y288D01*
X1320Y288D02*
X1363Y288D01*
X1419Y288D02*
X1427Y288D01*
X1450Y288D02*
X1493Y288D01*
X1515Y288D02*
X1558Y288D01*
X1584Y288D02*
X1623Y288D01*
X1644Y288D02*
X1657Y288D01*
X1680Y288D02*
X1688Y288D01*
X282Y287D02*
X325Y287D01*
X429Y287D02*
X454Y287D01*
X642Y287D02*
X650Y287D01*
X755Y287D02*
X765Y287D01*
X828Y287D02*
X835Y287D01*
X958Y287D02*
X965Y287D01*
X1031Y287D02*
X1039Y287D01*
X1144Y287D02*
X1155Y287D01*
X1191Y287D02*
X1234Y287D01*
X1320Y287D02*
X1363Y287D01*
X1419Y287D02*
X1427Y287D01*
X1450Y287D02*
X1493Y287D01*
X1515Y287D02*
X1557Y287D01*
X1583Y287D02*
X1623Y287D01*
X1645Y287D02*
X1658Y287D01*
X1680Y287D02*
X1688Y287D01*
X282Y286D02*
X325Y286D01*
X429Y286D02*
X453Y286D01*
X642Y286D02*
X650Y286D01*
X755Y286D02*
X764Y286D01*
X828Y286D02*
X835Y286D01*
X957Y286D02*
X965Y286D01*
X1031Y286D02*
X1039Y286D01*
X1145Y286D02*
X1154Y286D01*
X1192Y286D02*
X1234Y286D01*
X1320Y286D02*
X1363Y286D01*
X1394Y286D02*
X1397Y286D01*
X1419Y286D02*
X1427Y286D01*
X1450Y286D02*
X1493Y286D01*
X1514Y286D02*
X1556Y286D01*
X1582Y286D02*
X1623Y286D01*
X1646Y286D02*
X1659Y286D01*
X1680Y286D02*
X1688Y286D01*
X282Y285D02*
X325Y285D01*
X429Y285D02*
X450Y285D01*
X642Y285D02*
X650Y285D01*
X758Y285D02*
X761Y285D01*
X827Y285D02*
X836Y285D01*
X957Y285D02*
X965Y285D01*
X1031Y285D02*
X1039Y285D01*
X1148Y285D02*
X1151Y285D01*
X1195Y285D02*
X1234Y285D01*
X1320Y285D02*
X1363Y285D01*
X1393Y285D02*
X1399Y285D01*
X1419Y285D02*
X1427Y285D01*
X1450Y285D02*
X1493Y285D01*
X1514Y285D02*
X1553Y285D01*
X1582Y285D02*
X1623Y285D01*
X1647Y285D02*
X1660Y285D01*
X1680Y285D02*
X1688Y285D01*
X282Y284D02*
X290Y284D01*
X317Y284D02*
X325Y284D01*
X429Y284D02*
X437Y284D01*
X642Y284D02*
X650Y284D01*
X827Y284D02*
X836Y284D01*
X957Y284D02*
X965Y284D01*
X1031Y284D02*
X1039Y284D01*
X1226Y284D02*
X1234Y284D01*
X1320Y284D02*
X1328Y284D01*
X1355Y284D02*
X1364Y284D01*
X1392Y284D02*
X1399Y284D01*
X1419Y284D02*
X1427Y284D01*
X1450Y284D02*
X1458Y284D01*
X1485Y284D02*
X1493Y284D01*
X1514Y284D02*
X1522Y284D01*
X1581Y284D02*
X1592Y284D01*
X1615Y284D02*
X1623Y284D01*
X1648Y284D02*
X1661Y284D01*
X1680Y284D02*
X1688Y284D01*
X282Y283D02*
X290Y283D01*
X317Y283D02*
X325Y283D01*
X429Y283D02*
X437Y283D01*
X642Y283D02*
X650Y283D01*
X827Y283D02*
X836Y283D01*
X957Y283D02*
X965Y283D01*
X1031Y283D02*
X1039Y283D01*
X1226Y283D02*
X1234Y283D01*
X1320Y283D02*
X1328Y283D01*
X1355Y283D02*
X1364Y283D01*
X1392Y283D02*
X1400Y283D01*
X1419Y283D02*
X1427Y283D01*
X1450Y283D02*
X1458Y283D01*
X1485Y283D02*
X1493Y283D01*
X1514Y283D02*
X1522Y283D01*
X1581Y283D02*
X1591Y283D01*
X1615Y283D02*
X1623Y283D01*
X1649Y283D02*
X1662Y283D01*
X1680Y283D02*
X1688Y283D01*
X282Y282D02*
X290Y282D01*
X317Y282D02*
X325Y282D01*
X429Y282D02*
X437Y282D01*
X642Y282D02*
X650Y282D01*
X827Y282D02*
X836Y282D01*
X957Y282D02*
X965Y282D01*
X1031Y282D02*
X1039Y282D01*
X1226Y282D02*
X1234Y282D01*
X1320Y282D02*
X1328Y282D01*
X1355Y282D02*
X1364Y282D01*
X1392Y282D02*
X1400Y282D01*
X1419Y282D02*
X1427Y282D01*
X1450Y282D02*
X1458Y282D01*
X1485Y282D02*
X1493Y282D01*
X1514Y282D02*
X1522Y282D01*
X1580Y282D02*
X1590Y282D01*
X1615Y282D02*
X1623Y282D01*
X1651Y282D02*
X1664Y282D01*
X1680Y282D02*
X1688Y282D01*
X282Y281D02*
X290Y281D01*
X317Y281D02*
X325Y281D01*
X429Y281D02*
X437Y281D01*
X642Y281D02*
X650Y281D01*
X827Y281D02*
X836Y281D01*
X957Y281D02*
X965Y281D01*
X1031Y281D02*
X1039Y281D01*
X1226Y281D02*
X1234Y281D01*
X1320Y281D02*
X1328Y281D01*
X1355Y281D02*
X1364Y281D01*
X1392Y281D02*
X1400Y281D01*
X1419Y281D02*
X1427Y281D01*
X1450Y281D02*
X1458Y281D01*
X1485Y281D02*
X1493Y281D01*
X1514Y281D02*
X1522Y281D01*
X1580Y281D02*
X1589Y281D01*
X1615Y281D02*
X1623Y281D01*
X1652Y281D02*
X1665Y281D01*
X1680Y281D02*
X1688Y281D01*
X282Y280D02*
X290Y280D01*
X317Y280D02*
X325Y280D01*
X429Y280D02*
X437Y280D01*
X642Y280D02*
X650Y280D01*
X827Y280D02*
X836Y280D01*
X957Y280D02*
X965Y280D01*
X1031Y280D02*
X1039Y280D01*
X1226Y280D02*
X1234Y280D01*
X1320Y280D02*
X1328Y280D01*
X1355Y280D02*
X1364Y280D01*
X1392Y280D02*
X1400Y280D01*
X1419Y280D02*
X1427Y280D01*
X1450Y280D02*
X1458Y280D01*
X1485Y280D02*
X1493Y280D01*
X1514Y280D02*
X1522Y280D01*
X1580Y280D02*
X1588Y280D01*
X1615Y280D02*
X1623Y280D01*
X1653Y280D02*
X1666Y280D01*
X1680Y280D02*
X1688Y280D01*
X282Y279D02*
X290Y279D01*
X317Y279D02*
X325Y279D01*
X429Y279D02*
X437Y279D01*
X642Y279D02*
X650Y279D01*
X827Y279D02*
X836Y279D01*
X957Y279D02*
X965Y279D01*
X1031Y279D02*
X1039Y279D01*
X1226Y279D02*
X1234Y279D01*
X1320Y279D02*
X1328Y279D01*
X1355Y279D02*
X1364Y279D01*
X1392Y279D02*
X1400Y279D01*
X1419Y279D02*
X1427Y279D01*
X1450Y279D02*
X1458Y279D01*
X1485Y279D02*
X1493Y279D01*
X1514Y279D02*
X1522Y279D01*
X1580Y279D02*
X1588Y279D01*
X1615Y279D02*
X1623Y279D01*
X1654Y279D02*
X1667Y279D01*
X1680Y279D02*
X1688Y279D01*
X282Y278D02*
X290Y278D01*
X317Y278D02*
X325Y278D01*
X429Y278D02*
X437Y278D01*
X642Y278D02*
X650Y278D01*
X827Y278D02*
X836Y278D01*
X957Y278D02*
X965Y278D01*
X1031Y278D02*
X1039Y278D01*
X1226Y278D02*
X1234Y278D01*
X1320Y278D02*
X1328Y278D01*
X1355Y278D02*
X1364Y278D01*
X1392Y278D02*
X1400Y278D01*
X1419Y278D02*
X1427Y278D01*
X1450Y278D02*
X1458Y278D01*
X1485Y278D02*
X1493Y278D01*
X1514Y278D02*
X1522Y278D01*
X1580Y278D02*
X1588Y278D01*
X1615Y278D02*
X1623Y278D01*
X1655Y278D02*
X1668Y278D01*
X1680Y278D02*
X1688Y278D01*
X282Y277D02*
X290Y277D01*
X317Y277D02*
X325Y277D01*
X429Y277D02*
X437Y277D01*
X642Y277D02*
X650Y277D01*
X827Y277D02*
X836Y277D01*
X957Y277D02*
X965Y277D01*
X1031Y277D02*
X1039Y277D01*
X1226Y277D02*
X1234Y277D01*
X1320Y277D02*
X1328Y277D01*
X1355Y277D02*
X1364Y277D01*
X1392Y277D02*
X1400Y277D01*
X1419Y277D02*
X1427Y277D01*
X1450Y277D02*
X1458Y277D01*
X1485Y277D02*
X1493Y277D01*
X1514Y277D02*
X1522Y277D01*
X1579Y277D02*
X1588Y277D01*
X1615Y277D02*
X1623Y277D01*
X1656Y277D02*
X1669Y277D01*
X1680Y277D02*
X1688Y277D01*
X282Y276D02*
X290Y276D01*
X317Y276D02*
X325Y276D01*
X429Y276D02*
X437Y276D01*
X642Y276D02*
X650Y276D01*
X827Y276D02*
X836Y276D01*
X957Y276D02*
X965Y276D01*
X1031Y276D02*
X1039Y276D01*
X1226Y276D02*
X1234Y276D01*
X1320Y276D02*
X1328Y276D01*
X1355Y276D02*
X1364Y276D01*
X1392Y276D02*
X1400Y276D01*
X1419Y276D02*
X1427Y276D01*
X1450Y276D02*
X1458Y276D01*
X1485Y276D02*
X1493Y276D01*
X1514Y276D02*
X1522Y276D01*
X1579Y276D02*
X1587Y276D01*
X1615Y276D02*
X1623Y276D01*
X1658Y276D02*
X1671Y276D01*
X1680Y276D02*
X1688Y276D01*
X282Y275D02*
X290Y275D01*
X317Y275D02*
X325Y275D01*
X429Y275D02*
X437Y275D01*
X516Y275D02*
X516Y275D01*
X642Y275D02*
X650Y275D01*
X675Y275D02*
X694Y275D01*
X758Y275D02*
X771Y275D01*
X812Y275D02*
X839Y275D01*
X878Y275D02*
X897Y275D01*
X942Y275D02*
X969Y275D01*
X1009Y275D02*
X1015Y275D01*
X1031Y275D02*
X1039Y275D01*
X1081Y275D02*
X1088Y275D01*
X1147Y275D02*
X1160Y275D01*
X1226Y275D02*
X1234Y275D01*
X1320Y275D02*
X1328Y275D01*
X1355Y275D02*
X1364Y275D01*
X1392Y275D02*
X1400Y275D01*
X1419Y275D02*
X1427Y275D01*
X1450Y275D02*
X1458Y275D01*
X1485Y275D02*
X1493Y275D01*
X1514Y275D02*
X1522Y275D01*
X1579Y275D02*
X1587Y275D01*
X1615Y275D02*
X1623Y275D01*
X1659Y275D02*
X1672Y275D01*
X1680Y275D02*
X1688Y275D01*
X282Y274D02*
X290Y274D01*
X317Y274D02*
X325Y274D01*
X429Y274D02*
X437Y274D01*
X478Y274D02*
X483Y274D01*
X513Y274D02*
X518Y274D01*
X612Y274D02*
X617Y274D01*
X642Y274D02*
X650Y274D01*
X673Y274D02*
X699Y274D01*
X755Y274D02*
X773Y274D01*
X810Y274D02*
X843Y274D01*
X873Y274D02*
X901Y274D01*
X939Y274D02*
X972Y274D01*
X1005Y274D02*
X1019Y274D01*
X1031Y274D02*
X1039Y274D01*
X1062Y274D02*
X1067Y274D01*
X1077Y274D02*
X1092Y274D01*
X1145Y274D02*
X1163Y274D01*
X1226Y274D02*
X1234Y274D01*
X1320Y274D02*
X1328Y274D01*
X1355Y274D02*
X1364Y274D01*
X1392Y274D02*
X1400Y274D01*
X1419Y274D02*
X1427Y274D01*
X1450Y274D02*
X1458Y274D01*
X1485Y274D02*
X1493Y274D01*
X1514Y274D02*
X1522Y274D01*
X1579Y274D02*
X1587Y274D01*
X1615Y274D02*
X1623Y274D01*
X1660Y274D02*
X1673Y274D01*
X1680Y274D02*
X1688Y274D01*
X282Y273D02*
X290Y273D01*
X317Y273D02*
X325Y273D01*
X429Y273D02*
X437Y273D01*
X477Y273D02*
X483Y273D01*
X513Y273D02*
X519Y273D01*
X611Y273D02*
X618Y273D01*
X642Y273D02*
X650Y273D01*
X672Y273D02*
X701Y273D01*
X755Y273D02*
X774Y273D01*
X809Y273D02*
X844Y273D01*
X871Y273D02*
X903Y273D01*
X939Y273D02*
X973Y273D01*
X1003Y273D02*
X1021Y273D01*
X1031Y273D02*
X1039Y273D01*
X1061Y273D02*
X1067Y273D01*
X1074Y273D02*
X1094Y273D01*
X1144Y273D02*
X1163Y273D01*
X1226Y273D02*
X1234Y273D01*
X1320Y273D02*
X1328Y273D01*
X1355Y273D02*
X1364Y273D01*
X1392Y273D02*
X1400Y273D01*
X1419Y273D02*
X1427Y273D01*
X1450Y273D02*
X1458Y273D01*
X1485Y273D02*
X1493Y273D01*
X1514Y273D02*
X1522Y273D01*
X1579Y273D02*
X1587Y273D01*
X1615Y273D02*
X1623Y273D01*
X1661Y273D02*
X1674Y273D01*
X1680Y273D02*
X1688Y273D01*
X282Y272D02*
X290Y272D01*
X317Y272D02*
X325Y272D01*
X429Y272D02*
X437Y272D01*
X477Y272D02*
X484Y272D01*
X512Y272D02*
X520Y272D01*
X611Y272D02*
X619Y272D01*
X642Y272D02*
X650Y272D01*
X671Y272D02*
X702Y272D01*
X754Y272D02*
X775Y272D01*
X808Y272D02*
X844Y272D01*
X870Y272D02*
X904Y272D01*
X938Y272D02*
X974Y272D01*
X1001Y272D02*
X1023Y272D01*
X1031Y272D02*
X1039Y272D01*
X1060Y272D02*
X1068Y272D01*
X1073Y272D02*
X1096Y272D01*
X1143Y272D02*
X1164Y272D01*
X1226Y272D02*
X1234Y272D01*
X1320Y272D02*
X1328Y272D01*
X1355Y272D02*
X1364Y272D01*
X1392Y272D02*
X1400Y272D01*
X1419Y272D02*
X1427Y272D01*
X1450Y272D02*
X1458Y272D01*
X1485Y272D02*
X1493Y272D01*
X1514Y272D02*
X1522Y272D01*
X1579Y272D02*
X1587Y272D01*
X1615Y272D02*
X1623Y272D01*
X1662Y272D02*
X1675Y272D01*
X1680Y272D02*
X1688Y272D01*
X282Y271D02*
X290Y271D01*
X317Y271D02*
X325Y271D01*
X429Y271D02*
X437Y271D01*
X476Y271D02*
X484Y271D01*
X512Y271D02*
X520Y271D01*
X611Y271D02*
X621Y271D01*
X642Y271D02*
X650Y271D01*
X671Y271D02*
X704Y271D01*
X754Y271D02*
X775Y271D01*
X808Y271D02*
X844Y271D01*
X869Y271D02*
X905Y271D01*
X938Y271D02*
X974Y271D01*
X1000Y271D02*
X1024Y271D01*
X1031Y271D02*
X1039Y271D01*
X1060Y271D02*
X1068Y271D01*
X1072Y271D02*
X1097Y271D01*
X1143Y271D02*
X1164Y271D01*
X1202Y271D02*
X1234Y271D01*
X1320Y271D02*
X1328Y271D01*
X1355Y271D02*
X1364Y271D01*
X1392Y271D02*
X1400Y271D01*
X1419Y271D02*
X1427Y271D01*
X1450Y271D02*
X1458Y271D01*
X1485Y271D02*
X1493Y271D01*
X1514Y271D02*
X1522Y271D01*
X1579Y271D02*
X1588Y271D01*
X1615Y271D02*
X1623Y271D01*
X1663Y271D02*
X1676Y271D01*
X1680Y271D02*
X1688Y271D01*
X282Y270D02*
X290Y270D01*
X317Y270D02*
X325Y270D01*
X429Y270D02*
X437Y270D01*
X476Y270D02*
X484Y270D01*
X512Y270D02*
X520Y270D01*
X611Y270D02*
X622Y270D01*
X642Y270D02*
X650Y270D01*
X671Y270D02*
X705Y270D01*
X754Y270D02*
X775Y270D01*
X808Y270D02*
X844Y270D01*
X868Y270D02*
X906Y270D01*
X938Y270D02*
X974Y270D01*
X999Y270D02*
X1026Y270D01*
X1031Y270D02*
X1039Y270D01*
X1060Y270D02*
X1068Y270D01*
X1071Y270D02*
X1098Y270D01*
X1143Y270D02*
X1164Y270D01*
X1200Y270D02*
X1234Y270D01*
X1320Y270D02*
X1328Y270D01*
X1355Y270D02*
X1364Y270D01*
X1392Y270D02*
X1400Y270D01*
X1419Y270D02*
X1427Y270D01*
X1450Y270D02*
X1458Y270D01*
X1485Y270D02*
X1493Y270D01*
X1514Y270D02*
X1522Y270D01*
X1580Y270D02*
X1588Y270D01*
X1615Y270D02*
X1623Y270D01*
X1665Y270D02*
X1678Y270D01*
X1680Y270D02*
X1688Y270D01*
X282Y269D02*
X290Y269D01*
X317Y269D02*
X325Y269D01*
X429Y269D02*
X437Y269D01*
X476Y269D02*
X484Y269D01*
X512Y269D02*
X520Y269D01*
X611Y269D02*
X623Y269D01*
X642Y269D02*
X650Y269D01*
X671Y269D02*
X706Y269D01*
X754Y269D02*
X775Y269D01*
X808Y269D02*
X844Y269D01*
X867Y269D02*
X907Y269D01*
X938Y269D02*
X974Y269D01*
X999Y269D02*
X1027Y269D01*
X1031Y269D02*
X1039Y269D01*
X1060Y269D02*
X1099Y269D01*
X1143Y269D02*
X1164Y269D01*
X1200Y269D02*
X1234Y269D01*
X1320Y269D02*
X1328Y269D01*
X1355Y269D02*
X1364Y269D01*
X1392Y269D02*
X1400Y269D01*
X1419Y269D02*
X1427Y269D01*
X1450Y269D02*
X1458Y269D01*
X1485Y269D02*
X1493Y269D01*
X1514Y269D02*
X1522Y269D01*
X1580Y269D02*
X1588Y269D01*
X1615Y269D02*
X1623Y269D01*
X1666Y269D02*
X1688Y269D01*
X282Y268D02*
X290Y268D01*
X317Y268D02*
X325Y268D01*
X429Y268D02*
X437Y268D01*
X476Y268D02*
X484Y268D01*
X512Y268D02*
X520Y268D01*
X611Y268D02*
X624Y268D01*
X642Y268D02*
X650Y268D01*
X672Y268D02*
X707Y268D01*
X754Y268D02*
X774Y268D01*
X809Y268D02*
X844Y268D01*
X867Y268D02*
X907Y268D01*
X938Y268D02*
X973Y268D01*
X998Y268D02*
X1029Y268D01*
X1031Y268D02*
X1039Y268D01*
X1060Y268D02*
X1100Y268D01*
X1143Y268D02*
X1164Y268D01*
X1199Y268D02*
X1234Y268D01*
X1320Y268D02*
X1328Y268D01*
X1355Y268D02*
X1364Y268D01*
X1392Y268D02*
X1400Y268D01*
X1419Y268D02*
X1427Y268D01*
X1450Y268D02*
X1458Y268D01*
X1485Y268D02*
X1493Y268D01*
X1514Y268D02*
X1522Y268D01*
X1580Y268D02*
X1589Y268D01*
X1615Y268D02*
X1623Y268D01*
X1667Y268D02*
X1688Y268D01*
X282Y267D02*
X290Y267D01*
X317Y267D02*
X325Y267D01*
X429Y267D02*
X437Y267D01*
X476Y267D02*
X484Y267D01*
X512Y267D02*
X520Y267D01*
X612Y267D02*
X625Y267D01*
X642Y267D02*
X650Y267D01*
X673Y267D02*
X708Y267D01*
X754Y267D02*
X773Y267D01*
X810Y267D02*
X843Y267D01*
X867Y267D02*
X908Y267D01*
X939Y267D02*
X972Y267D01*
X998Y267D02*
X1039Y267D01*
X1060Y267D02*
X1101Y267D01*
X1143Y267D02*
X1163Y267D01*
X1199Y267D02*
X1234Y267D01*
X1320Y267D02*
X1328Y267D01*
X1355Y267D02*
X1364Y267D01*
X1392Y267D02*
X1400Y267D01*
X1419Y267D02*
X1427Y267D01*
X1450Y267D02*
X1458Y267D01*
X1485Y267D02*
X1493Y267D01*
X1514Y267D02*
X1522Y267D01*
X1580Y267D02*
X1590Y267D01*
X1615Y267D02*
X1623Y267D01*
X1668Y267D02*
X1688Y267D01*
X282Y266D02*
X290Y266D01*
X317Y266D02*
X325Y266D01*
X429Y266D02*
X437Y266D01*
X476Y266D02*
X484Y266D01*
X512Y266D02*
X520Y266D01*
X613Y266D02*
X626Y266D01*
X642Y266D02*
X650Y266D01*
X676Y266D02*
X709Y266D01*
X754Y266D02*
X770Y266D01*
X812Y266D02*
X840Y266D01*
X867Y266D02*
X908Y266D01*
X942Y266D02*
X970Y266D01*
X997Y266D02*
X1039Y266D01*
X1060Y266D02*
X1102Y266D01*
X1143Y266D02*
X1160Y266D01*
X1199Y266D02*
X1234Y266D01*
X1320Y266D02*
X1328Y266D01*
X1355Y266D02*
X1364Y266D01*
X1392Y266D02*
X1400Y266D01*
X1419Y266D02*
X1427Y266D01*
X1450Y266D02*
X1458Y266D01*
X1485Y266D02*
X1493Y266D01*
X1514Y266D02*
X1522Y266D01*
X1581Y266D02*
X1590Y266D01*
X1615Y266D02*
X1623Y266D01*
X1669Y266D02*
X1688Y266D01*
X282Y265D02*
X290Y265D01*
X317Y265D02*
X325Y265D01*
X429Y265D02*
X437Y265D01*
X476Y265D02*
X484Y265D01*
X512Y265D02*
X520Y265D01*
X615Y265D02*
X628Y265D01*
X642Y265D02*
X650Y265D01*
X697Y265D02*
X710Y265D01*
X754Y265D02*
X762Y265D01*
X827Y265D02*
X836Y265D01*
X867Y265D02*
X875Y265D01*
X900Y265D02*
X908Y265D01*
X957Y265D02*
X965Y265D01*
X997Y265D02*
X1006Y265D01*
X1018Y265D02*
X1039Y265D01*
X1060Y265D02*
X1078Y265D01*
X1091Y265D02*
X1102Y265D01*
X1143Y265D02*
X1151Y265D01*
X1199Y265D02*
X1234Y265D01*
X1320Y265D02*
X1328Y265D01*
X1355Y265D02*
X1364Y265D01*
X1392Y265D02*
X1400Y265D01*
X1419Y265D02*
X1427Y265D01*
X1450Y265D02*
X1458Y265D01*
X1485Y265D02*
X1493Y265D01*
X1514Y265D02*
X1522Y265D01*
X1581Y265D02*
X1592Y265D01*
X1615Y265D02*
X1623Y265D01*
X1670Y265D02*
X1688Y265D01*
X282Y264D02*
X290Y264D01*
X317Y264D02*
X325Y264D01*
X429Y264D02*
X437Y264D01*
X476Y264D02*
X484Y264D01*
X512Y264D02*
X520Y264D01*
X616Y264D02*
X629Y264D01*
X642Y264D02*
X650Y264D01*
X698Y264D02*
X711Y264D01*
X754Y264D02*
X762Y264D01*
X827Y264D02*
X836Y264D01*
X867Y264D02*
X874Y264D01*
X900Y264D02*
X908Y264D01*
X957Y264D02*
X965Y264D01*
X997Y264D02*
X1005Y264D01*
X1019Y264D02*
X1039Y264D01*
X1060Y264D02*
X1077Y264D01*
X1092Y264D02*
X1103Y264D01*
X1143Y264D02*
X1151Y264D01*
X1200Y264D02*
X1234Y264D01*
X1320Y264D02*
X1328Y264D01*
X1355Y264D02*
X1364Y264D01*
X1392Y264D02*
X1400Y264D01*
X1419Y264D02*
X1427Y264D01*
X1450Y264D02*
X1458Y264D01*
X1485Y264D02*
X1493Y264D01*
X1514Y264D02*
X1522Y264D01*
X1582Y264D02*
X1594Y264D01*
X1615Y264D02*
X1623Y264D01*
X1672Y264D02*
X1688Y264D01*
X282Y263D02*
X290Y263D01*
X317Y263D02*
X325Y263D01*
X429Y263D02*
X437Y263D01*
X476Y263D02*
X485Y263D01*
X511Y263D02*
X520Y263D01*
X617Y263D02*
X630Y263D01*
X642Y263D02*
X650Y263D01*
X699Y263D02*
X712Y263D01*
X754Y263D02*
X762Y263D01*
X827Y263D02*
X836Y263D01*
X869Y263D02*
X872Y263D01*
X900Y263D02*
X908Y263D01*
X957Y263D02*
X965Y263D01*
X997Y263D02*
X1005Y263D01*
X1021Y263D02*
X1039Y263D01*
X1060Y263D02*
X1075Y263D01*
X1093Y263D02*
X1103Y263D01*
X1143Y263D02*
X1151Y263D01*
X1201Y263D02*
X1234Y263D01*
X1320Y263D02*
X1328Y263D01*
X1355Y263D02*
X1364Y263D01*
X1392Y263D02*
X1400Y263D01*
X1419Y263D02*
X1427Y263D01*
X1450Y263D02*
X1458Y263D01*
X1485Y263D02*
X1493Y263D01*
X1514Y263D02*
X1552Y263D01*
X1582Y263D02*
X1623Y263D01*
X1673Y263D02*
X1688Y263D01*
X282Y262D02*
X290Y262D01*
X317Y262D02*
X325Y262D01*
X429Y262D02*
X437Y262D01*
X476Y262D02*
X485Y262D01*
X511Y262D02*
X520Y262D01*
X618Y262D02*
X631Y262D01*
X642Y262D02*
X650Y262D01*
X701Y262D02*
X713Y262D01*
X754Y262D02*
X762Y262D01*
X827Y262D02*
X836Y262D01*
X900Y262D02*
X908Y262D01*
X957Y262D02*
X965Y262D01*
X996Y262D02*
X1005Y262D01*
X1022Y262D02*
X1039Y262D01*
X1060Y262D02*
X1074Y262D01*
X1094Y262D02*
X1104Y262D01*
X1143Y262D02*
X1151Y262D01*
X1225Y262D02*
X1234Y262D01*
X1320Y262D02*
X1328Y262D01*
X1355Y262D02*
X1364Y262D01*
X1392Y262D02*
X1400Y262D01*
X1419Y262D02*
X1427Y262D01*
X1450Y262D02*
X1458Y262D01*
X1485Y262D02*
X1493Y262D01*
X1515Y262D02*
X1554Y262D01*
X1583Y262D02*
X1623Y262D01*
X1674Y262D02*
X1688Y262D01*
X282Y261D02*
X290Y261D01*
X317Y261D02*
X325Y261D01*
X429Y261D02*
X437Y261D01*
X477Y261D02*
X486Y261D01*
X511Y261D02*
X520Y261D01*
X619Y261D02*
X632Y261D01*
X642Y261D02*
X650Y261D01*
X702Y261D02*
X713Y261D01*
X754Y261D02*
X762Y261D01*
X827Y261D02*
X836Y261D01*
X898Y261D02*
X908Y261D01*
X957Y261D02*
X965Y261D01*
X996Y261D02*
X1004Y261D01*
X1024Y261D02*
X1039Y261D01*
X1060Y261D02*
X1073Y261D01*
X1095Y261D02*
X1104Y261D01*
X1143Y261D02*
X1151Y261D01*
X1226Y261D02*
X1234Y261D01*
X1320Y261D02*
X1328Y261D01*
X1355Y261D02*
X1364Y261D01*
X1392Y261D02*
X1400Y261D01*
X1419Y261D02*
X1427Y261D01*
X1450Y261D02*
X1458Y261D01*
X1485Y261D02*
X1493Y261D01*
X1515Y261D02*
X1555Y261D01*
X1584Y261D02*
X1623Y261D01*
X1675Y261D02*
X1688Y261D01*
X282Y260D02*
X290Y260D01*
X317Y260D02*
X325Y260D01*
X429Y260D02*
X437Y260D01*
X477Y260D02*
X486Y260D01*
X510Y260D02*
X519Y260D01*
X620Y260D02*
X633Y260D01*
X642Y260D02*
X650Y260D01*
X703Y260D02*
X714Y260D01*
X754Y260D02*
X762Y260D01*
X827Y260D02*
X836Y260D01*
X896Y260D02*
X907Y260D01*
X957Y260D02*
X965Y260D01*
X996Y260D02*
X1004Y260D01*
X1026Y260D02*
X1039Y260D01*
X1060Y260D02*
X1072Y260D01*
X1096Y260D02*
X1104Y260D01*
X1143Y260D02*
X1151Y260D01*
X1226Y260D02*
X1234Y260D01*
X1320Y260D02*
X1328Y260D01*
X1355Y260D02*
X1364Y260D01*
X1392Y260D02*
X1400Y260D01*
X1419Y260D02*
X1427Y260D01*
X1450Y260D02*
X1458Y260D01*
X1485Y260D02*
X1493Y260D01*
X1515Y260D02*
X1556Y260D01*
X1585Y260D02*
X1623Y260D01*
X1676Y260D02*
X1688Y260D01*
X282Y259D02*
X290Y259D01*
X317Y259D02*
X325Y259D01*
X429Y259D02*
X437Y259D01*
X478Y259D02*
X486Y259D01*
X510Y259D02*
X519Y259D01*
X622Y259D02*
X635Y259D01*
X642Y259D02*
X650Y259D01*
X704Y259D02*
X714Y259D01*
X754Y259D02*
X762Y259D01*
X827Y259D02*
X836Y259D01*
X894Y259D02*
X907Y259D01*
X957Y259D02*
X965Y259D01*
X996Y259D02*
X1004Y259D01*
X1027Y259D02*
X1039Y259D01*
X1060Y259D02*
X1071Y259D01*
X1096Y259D02*
X1104Y259D01*
X1143Y259D02*
X1151Y259D01*
X1226Y259D02*
X1234Y259D01*
X1320Y259D02*
X1328Y259D01*
X1355Y259D02*
X1364Y259D01*
X1392Y259D02*
X1400Y259D01*
X1419Y259D02*
X1427Y259D01*
X1450Y259D02*
X1458Y259D01*
X1485Y259D02*
X1493Y259D01*
X1516Y259D02*
X1557Y259D01*
X1585Y259D02*
X1623Y259D01*
X1677Y259D02*
X1688Y259D01*
X282Y258D02*
X290Y258D01*
X317Y258D02*
X325Y258D01*
X429Y258D02*
X437Y258D01*
X478Y258D02*
X487Y258D01*
X509Y258D02*
X518Y258D01*
X623Y258D02*
X636Y258D01*
X642Y258D02*
X650Y258D01*
X705Y258D02*
X714Y258D01*
X754Y258D02*
X762Y258D01*
X827Y258D02*
X836Y258D01*
X891Y258D02*
X907Y258D01*
X957Y258D02*
X965Y258D01*
X996Y258D02*
X1004Y258D01*
X1029Y258D02*
X1039Y258D01*
X1060Y258D02*
X1070Y258D01*
X1096Y258D02*
X1104Y258D01*
X1143Y258D02*
X1151Y258D01*
X1226Y258D02*
X1234Y258D01*
X1320Y258D02*
X1328Y258D01*
X1355Y258D02*
X1364Y258D01*
X1392Y258D02*
X1400Y258D01*
X1419Y258D02*
X1427Y258D01*
X1450Y258D02*
X1458Y258D01*
X1485Y258D02*
X1493Y258D01*
X1516Y258D02*
X1557Y258D01*
X1585Y258D02*
X1623Y258D01*
X1676Y258D02*
X1688Y258D01*
X282Y257D02*
X290Y257D01*
X317Y257D02*
X325Y257D01*
X429Y257D02*
X437Y257D01*
X478Y257D02*
X487Y257D01*
X509Y257D02*
X518Y257D01*
X624Y257D02*
X637Y257D01*
X642Y257D02*
X650Y257D01*
X706Y257D02*
X714Y257D01*
X754Y257D02*
X762Y257D01*
X827Y257D02*
X836Y257D01*
X889Y257D02*
X906Y257D01*
X957Y257D02*
X965Y257D01*
X996Y257D02*
X1004Y257D01*
X1030Y257D02*
X1039Y257D01*
X1060Y257D02*
X1069Y257D01*
X1096Y257D02*
X1104Y257D01*
X1143Y257D02*
X1151Y257D01*
X1226Y257D02*
X1234Y257D01*
X1320Y257D02*
X1328Y257D01*
X1355Y257D02*
X1364Y257D01*
X1392Y257D02*
X1400Y257D01*
X1419Y257D02*
X1427Y257D01*
X1450Y257D02*
X1458Y257D01*
X1485Y257D02*
X1493Y257D01*
X1517Y257D02*
X1558Y257D01*
X1584Y257D02*
X1623Y257D01*
X1675Y257D02*
X1688Y257D01*
X282Y256D02*
X290Y256D01*
X317Y256D02*
X325Y256D01*
X429Y256D02*
X437Y256D01*
X479Y256D02*
X488Y256D01*
X508Y256D02*
X517Y256D01*
X625Y256D02*
X638Y256D01*
X642Y256D02*
X650Y256D01*
X706Y256D02*
X714Y256D01*
X754Y256D02*
X762Y256D01*
X827Y256D02*
X836Y256D01*
X887Y256D02*
X905Y256D01*
X957Y256D02*
X965Y256D01*
X996Y256D02*
X1004Y256D01*
X1031Y256D02*
X1039Y256D01*
X1060Y256D02*
X1068Y256D01*
X1096Y256D02*
X1104Y256D01*
X1143Y256D02*
X1151Y256D01*
X1226Y256D02*
X1234Y256D01*
X1320Y256D02*
X1328Y256D01*
X1355Y256D02*
X1364Y256D01*
X1391Y256D02*
X1427Y256D01*
X1450Y256D02*
X1458Y256D01*
X1485Y256D02*
X1493Y256D01*
X1519Y256D02*
X1558Y256D01*
X1583Y256D02*
X1623Y256D01*
X1674Y256D02*
X1688Y256D01*
X282Y255D02*
X290Y255D01*
X317Y255D02*
X325Y255D01*
X429Y255D02*
X437Y255D01*
X479Y255D02*
X488Y255D01*
X508Y255D02*
X517Y255D01*
X626Y255D02*
X639Y255D01*
X642Y255D02*
X650Y255D01*
X706Y255D02*
X715Y255D01*
X754Y255D02*
X762Y255D01*
X827Y255D02*
X836Y255D01*
X884Y255D02*
X904Y255D01*
X957Y255D02*
X965Y255D01*
X996Y255D02*
X1004Y255D01*
X1031Y255D02*
X1039Y255D01*
X1060Y255D02*
X1068Y255D01*
X1096Y255D02*
X1104Y255D01*
X1143Y255D02*
X1151Y255D01*
X1226Y255D02*
X1234Y255D01*
X1320Y255D02*
X1328Y255D01*
X1355Y255D02*
X1364Y255D01*
X1388Y255D02*
X1427Y255D01*
X1450Y255D02*
X1458Y255D01*
X1485Y255D02*
X1493Y255D01*
X1521Y255D02*
X1558Y255D01*
X1582Y255D02*
X1623Y255D01*
X1673Y255D02*
X1688Y255D01*
X282Y254D02*
X290Y254D01*
X317Y254D02*
X325Y254D01*
X429Y254D02*
X437Y254D01*
X480Y254D02*
X489Y254D01*
X508Y254D02*
X516Y254D01*
X627Y254D02*
X650Y254D01*
X706Y254D02*
X715Y254D01*
X754Y254D02*
X762Y254D01*
X827Y254D02*
X836Y254D01*
X882Y254D02*
X903Y254D01*
X957Y254D02*
X965Y254D01*
X996Y254D02*
X1004Y254D01*
X1031Y254D02*
X1039Y254D01*
X1060Y254D02*
X1068Y254D01*
X1096Y254D02*
X1104Y254D01*
X1143Y254D02*
X1151Y254D01*
X1226Y254D02*
X1234Y254D01*
X1320Y254D02*
X1328Y254D01*
X1355Y254D02*
X1364Y254D01*
X1387Y254D02*
X1427Y254D01*
X1450Y254D02*
X1458Y254D01*
X1485Y254D02*
X1493Y254D01*
X1550Y254D02*
X1558Y254D01*
X1581Y254D02*
X1593Y254D01*
X1615Y254D02*
X1623Y254D01*
X1671Y254D02*
X1688Y254D01*
X282Y253D02*
X290Y253D01*
X317Y253D02*
X325Y253D01*
X429Y253D02*
X437Y253D01*
X480Y253D02*
X489Y253D01*
X507Y253D02*
X516Y253D01*
X629Y253D02*
X650Y253D01*
X706Y253D02*
X715Y253D01*
X754Y253D02*
X762Y253D01*
X827Y253D02*
X836Y253D01*
X880Y253D02*
X901Y253D01*
X957Y253D02*
X965Y253D01*
X996Y253D02*
X1004Y253D01*
X1031Y253D02*
X1039Y253D01*
X1060Y253D02*
X1068Y253D01*
X1096Y253D02*
X1104Y253D01*
X1143Y253D02*
X1151Y253D01*
X1226Y253D02*
X1234Y253D01*
X1320Y253D02*
X1328Y253D01*
X1355Y253D02*
X1364Y253D01*
X1387Y253D02*
X1427Y253D01*
X1450Y253D02*
X1458Y253D01*
X1485Y253D02*
X1493Y253D01*
X1550Y253D02*
X1558Y253D01*
X1581Y253D02*
X1591Y253D01*
X1615Y253D02*
X1623Y253D01*
X1670Y253D02*
X1688Y253D01*
X282Y252D02*
X290Y252D01*
X317Y252D02*
X325Y252D01*
X429Y252D02*
X437Y252D01*
X480Y252D02*
X489Y252D01*
X507Y252D02*
X516Y252D01*
X630Y252D02*
X650Y252D01*
X706Y252D02*
X715Y252D01*
X754Y252D02*
X762Y252D01*
X827Y252D02*
X836Y252D01*
X877Y252D02*
X899Y252D01*
X957Y252D02*
X965Y252D01*
X996Y252D02*
X1004Y252D01*
X1031Y252D02*
X1039Y252D01*
X1060Y252D02*
X1068Y252D01*
X1096Y252D02*
X1104Y252D01*
X1143Y252D02*
X1151Y252D01*
X1226Y252D02*
X1234Y252D01*
X1320Y252D02*
X1328Y252D01*
X1355Y252D02*
X1364Y252D01*
X1386Y252D02*
X1427Y252D01*
X1450Y252D02*
X1458Y252D01*
X1485Y252D02*
X1493Y252D01*
X1550Y252D02*
X1558Y252D01*
X1581Y252D02*
X1590Y252D01*
X1615Y252D02*
X1623Y252D01*
X1669Y252D02*
X1688Y252D01*
X282Y251D02*
X290Y251D01*
X317Y251D02*
X325Y251D01*
X415Y251D02*
X416Y251D01*
X429Y251D02*
X437Y251D01*
X481Y251D02*
X490Y251D01*
X506Y251D02*
X515Y251D01*
X630Y251D02*
X650Y251D01*
X706Y251D02*
X715Y251D01*
X754Y251D02*
X762Y251D01*
X827Y251D02*
X836Y251D01*
X875Y251D02*
X897Y251D01*
X957Y251D02*
X965Y251D01*
X996Y251D02*
X1004Y251D01*
X1031Y251D02*
X1039Y251D01*
X1060Y251D02*
X1068Y251D01*
X1096Y251D02*
X1104Y251D01*
X1143Y251D02*
X1151Y251D01*
X1226Y251D02*
X1234Y251D01*
X1320Y251D02*
X1328Y251D01*
X1355Y251D02*
X1364Y251D01*
X1386Y251D02*
X1427Y251D01*
X1450Y251D02*
X1458Y251D01*
X1485Y251D02*
X1493Y251D01*
X1550Y251D02*
X1558Y251D01*
X1580Y251D02*
X1589Y251D01*
X1615Y251D02*
X1623Y251D01*
X1668Y251D02*
X1688Y251D01*
X282Y250D02*
X290Y250D01*
X317Y250D02*
X325Y250D01*
X413Y250D02*
X418Y250D01*
X429Y250D02*
X437Y250D01*
X481Y250D02*
X490Y250D01*
X506Y250D02*
X515Y250D01*
X629Y250D02*
X650Y250D01*
X706Y250D02*
X715Y250D01*
X754Y250D02*
X762Y250D01*
X827Y250D02*
X836Y250D01*
X873Y250D02*
X894Y250D01*
X957Y250D02*
X965Y250D01*
X996Y250D02*
X1004Y250D01*
X1031Y250D02*
X1039Y250D01*
X1060Y250D02*
X1068Y250D01*
X1096Y250D02*
X1104Y250D01*
X1143Y250D02*
X1151Y250D01*
X1226Y250D02*
X1234Y250D01*
X1320Y250D02*
X1328Y250D01*
X1355Y250D02*
X1364Y250D01*
X1387Y250D02*
X1427Y250D01*
X1450Y250D02*
X1458Y250D01*
X1485Y250D02*
X1493Y250D01*
X1550Y250D02*
X1558Y250D01*
X1580Y250D02*
X1589Y250D01*
X1615Y250D02*
X1623Y250D01*
X1667Y250D02*
X1688Y250D01*
X282Y249D02*
X290Y249D01*
X317Y249D02*
X325Y249D01*
X412Y249D02*
X419Y249D01*
X429Y249D02*
X437Y249D01*
X482Y249D02*
X491Y249D01*
X505Y249D02*
X514Y249D01*
X628Y249D02*
X650Y249D01*
X706Y249D02*
X715Y249D01*
X754Y249D02*
X762Y249D01*
X827Y249D02*
X836Y249D01*
X871Y249D02*
X892Y249D01*
X957Y249D02*
X965Y249D01*
X996Y249D02*
X1004Y249D01*
X1031Y249D02*
X1039Y249D01*
X1060Y249D02*
X1068Y249D01*
X1096Y249D02*
X1104Y249D01*
X1143Y249D02*
X1151Y249D01*
X1226Y249D02*
X1234Y249D01*
X1320Y249D02*
X1328Y249D01*
X1355Y249D02*
X1364Y249D01*
X1387Y249D02*
X1427Y249D01*
X1450Y249D02*
X1458Y249D01*
X1485Y249D02*
X1493Y249D01*
X1550Y249D02*
X1558Y249D01*
X1580Y249D02*
X1588Y249D01*
X1615Y249D02*
X1623Y249D01*
X1666Y249D02*
X1688Y249D01*
X282Y248D02*
X290Y248D01*
X317Y248D02*
X325Y248D01*
X412Y248D02*
X419Y248D01*
X429Y248D02*
X437Y248D01*
X482Y248D02*
X491Y248D01*
X505Y248D02*
X514Y248D01*
X626Y248D02*
X650Y248D01*
X706Y248D02*
X715Y248D01*
X754Y248D02*
X762Y248D01*
X827Y248D02*
X836Y248D01*
X870Y248D02*
X890Y248D01*
X957Y248D02*
X965Y248D01*
X996Y248D02*
X1004Y248D01*
X1031Y248D02*
X1039Y248D01*
X1060Y248D02*
X1068Y248D01*
X1096Y248D02*
X1104Y248D01*
X1143Y248D02*
X1151Y248D01*
X1226Y248D02*
X1234Y248D01*
X1320Y248D02*
X1328Y248D01*
X1355Y248D02*
X1364Y248D01*
X1388Y248D02*
X1426Y248D01*
X1450Y248D02*
X1458Y248D01*
X1485Y248D02*
X1493Y248D01*
X1550Y248D02*
X1558Y248D01*
X1580Y248D02*
X1588Y248D01*
X1615Y248D02*
X1623Y248D01*
X1664Y248D02*
X1677Y248D01*
X1680Y248D02*
X1688Y248D01*
X282Y247D02*
X290Y247D01*
X317Y247D02*
X325Y247D01*
X362Y247D02*
X374Y247D01*
X411Y247D02*
X419Y247D01*
X429Y247D02*
X437Y247D01*
X483Y247D02*
X492Y247D01*
X505Y247D02*
X513Y247D01*
X625Y247D02*
X650Y247D01*
X706Y247D02*
X715Y247D01*
X754Y247D02*
X762Y247D01*
X827Y247D02*
X836Y247D01*
X869Y247D02*
X888Y247D01*
X957Y247D02*
X965Y247D01*
X996Y247D02*
X1004Y247D01*
X1031Y247D02*
X1039Y247D01*
X1060Y247D02*
X1068Y247D01*
X1096Y247D02*
X1104Y247D01*
X1143Y247D02*
X1151Y247D01*
X1226Y247D02*
X1234Y247D01*
X1320Y247D02*
X1328Y247D01*
X1355Y247D02*
X1364Y247D01*
X1390Y247D02*
X1425Y247D01*
X1450Y247D02*
X1458Y247D01*
X1485Y247D02*
X1493Y247D01*
X1550Y247D02*
X1558Y247D01*
X1580Y247D02*
X1588Y247D01*
X1615Y247D02*
X1623Y247D01*
X1663Y247D02*
X1676Y247D01*
X1680Y247D02*
X1688Y247D01*
X282Y246D02*
X290Y246D01*
X317Y246D02*
X325Y246D01*
X361Y246D02*
X376Y246D01*
X411Y246D02*
X419Y246D01*
X429Y246D02*
X437Y246D01*
X483Y246D02*
X492Y246D01*
X504Y246D02*
X513Y246D01*
X624Y246D02*
X650Y246D01*
X706Y246D02*
X715Y246D01*
X754Y246D02*
X762Y246D01*
X827Y246D02*
X836Y246D01*
X868Y246D02*
X885Y246D01*
X957Y246D02*
X965Y246D01*
X996Y246D02*
X1004Y246D01*
X1031Y246D02*
X1039Y246D01*
X1060Y246D02*
X1069Y246D01*
X1096Y246D02*
X1104Y246D01*
X1143Y246D02*
X1151Y246D01*
X1226Y246D02*
X1234Y246D01*
X1320Y246D02*
X1328Y246D01*
X1355Y246D02*
X1364Y246D01*
X1392Y246D02*
X1400Y246D01*
X1450Y246D02*
X1458Y246D01*
X1485Y246D02*
X1493Y246D01*
X1550Y246D02*
X1558Y246D01*
X1579Y246D02*
X1587Y246D01*
X1615Y246D02*
X1623Y246D01*
X1662Y246D02*
X1675Y246D01*
X1680Y246D02*
X1688Y246D01*
X282Y245D02*
X290Y245D01*
X317Y245D02*
X325Y245D01*
X360Y245D02*
X376Y245D01*
X411Y245D02*
X419Y245D01*
X429Y245D02*
X437Y245D01*
X483Y245D02*
X493Y245D01*
X504Y245D02*
X513Y245D01*
X623Y245D02*
X636Y245D01*
X638Y245D02*
X650Y245D01*
X706Y245D02*
X715Y245D01*
X754Y245D02*
X762Y245D01*
X827Y245D02*
X836Y245D01*
X868Y245D02*
X883Y245D01*
X957Y245D02*
X965Y245D01*
X996Y245D02*
X1004Y245D01*
X1031Y245D02*
X1039Y245D01*
X1060Y245D02*
X1070Y245D01*
X1096Y245D02*
X1104Y245D01*
X1143Y245D02*
X1151Y245D01*
X1226Y245D02*
X1234Y245D01*
X1320Y245D02*
X1328Y245D01*
X1355Y245D02*
X1364Y245D01*
X1392Y245D02*
X1400Y245D01*
X1450Y245D02*
X1458Y245D01*
X1485Y245D02*
X1493Y245D01*
X1550Y245D02*
X1558Y245D01*
X1579Y245D02*
X1587Y245D01*
X1615Y245D02*
X1623Y245D01*
X1661Y245D02*
X1674Y245D01*
X1680Y245D02*
X1688Y245D01*
X282Y244D02*
X290Y244D01*
X317Y244D02*
X325Y244D01*
X360Y244D02*
X377Y244D01*
X411Y244D02*
X419Y244D01*
X429Y244D02*
X437Y244D01*
X484Y244D02*
X493Y244D01*
X503Y244D02*
X512Y244D01*
X622Y244D02*
X635Y244D01*
X639Y244D02*
X650Y244D01*
X706Y244D02*
X715Y244D01*
X754Y244D02*
X762Y244D01*
X827Y244D02*
X836Y244D01*
X867Y244D02*
X881Y244D01*
X957Y244D02*
X965Y244D01*
X996Y244D02*
X1004Y244D01*
X1031Y244D02*
X1039Y244D01*
X1060Y244D02*
X1071Y244D01*
X1096Y244D02*
X1104Y244D01*
X1143Y244D02*
X1151Y244D01*
X1226Y244D02*
X1234Y244D01*
X1320Y244D02*
X1328Y244D01*
X1355Y244D02*
X1364Y244D01*
X1392Y244D02*
X1400Y244D01*
X1450Y244D02*
X1458Y244D01*
X1485Y244D02*
X1493Y244D01*
X1550Y244D02*
X1558Y244D01*
X1579Y244D02*
X1587Y244D01*
X1615Y244D02*
X1623Y244D01*
X1660Y244D02*
X1673Y244D01*
X1680Y244D02*
X1688Y244D01*
X282Y243D02*
X290Y243D01*
X317Y243D02*
X325Y243D01*
X360Y243D02*
X377Y243D01*
X411Y243D02*
X419Y243D01*
X429Y243D02*
X437Y243D01*
X484Y243D02*
X493Y243D01*
X503Y243D02*
X512Y243D01*
X620Y243D02*
X633Y243D01*
X640Y243D02*
X650Y243D01*
X706Y243D02*
X714Y243D01*
X754Y243D02*
X762Y243D01*
X827Y243D02*
X836Y243D01*
X867Y243D02*
X878Y243D01*
X957Y243D02*
X965Y243D01*
X996Y243D02*
X1004Y243D01*
X1031Y243D02*
X1039Y243D01*
X1060Y243D02*
X1072Y243D01*
X1096Y243D02*
X1104Y243D01*
X1143Y243D02*
X1151Y243D01*
X1226Y243D02*
X1234Y243D01*
X1320Y243D02*
X1328Y243D01*
X1355Y243D02*
X1364Y243D01*
X1392Y243D02*
X1400Y243D01*
X1450Y243D02*
X1458Y243D01*
X1485Y243D02*
X1493Y243D01*
X1550Y243D02*
X1558Y243D01*
X1579Y243D02*
X1587Y243D01*
X1615Y243D02*
X1623Y243D01*
X1659Y243D02*
X1672Y243D01*
X1680Y243D02*
X1688Y243D01*
X282Y242D02*
X290Y242D01*
X317Y242D02*
X325Y242D01*
X360Y242D02*
X377Y242D01*
X411Y242D02*
X419Y242D01*
X429Y242D02*
X437Y242D01*
X485Y242D02*
X494Y242D01*
X502Y242D02*
X511Y242D01*
X619Y242D02*
X632Y242D01*
X641Y242D02*
X650Y242D01*
X706Y242D02*
X714Y242D01*
X754Y242D02*
X762Y242D01*
X827Y242D02*
X836Y242D01*
X866Y242D02*
X876Y242D01*
X957Y242D02*
X965Y242D01*
X996Y242D02*
X1004Y242D01*
X1031Y242D02*
X1039Y242D01*
X1060Y242D02*
X1073Y242D01*
X1095Y242D02*
X1104Y242D01*
X1143Y242D02*
X1151Y242D01*
X1226Y242D02*
X1234Y242D01*
X1320Y242D02*
X1328Y242D01*
X1355Y242D02*
X1364Y242D01*
X1392Y242D02*
X1400Y242D01*
X1450Y242D02*
X1458Y242D01*
X1485Y242D02*
X1493Y242D01*
X1550Y242D02*
X1558Y242D01*
X1579Y242D02*
X1587Y242D01*
X1615Y242D02*
X1623Y242D01*
X1657Y242D02*
X1670Y242D01*
X1680Y242D02*
X1688Y242D01*
X282Y241D02*
X290Y241D01*
X317Y241D02*
X325Y241D01*
X360Y241D02*
X377Y241D01*
X411Y241D02*
X419Y241D01*
X429Y241D02*
X437Y241D01*
X485Y241D02*
X494Y241D01*
X502Y241D02*
X511Y241D01*
X618Y241D02*
X631Y241D01*
X642Y241D02*
X650Y241D01*
X705Y241D02*
X714Y241D01*
X754Y241D02*
X762Y241D01*
X827Y241D02*
X836Y241D01*
X866Y241D02*
X875Y241D01*
X957Y241D02*
X965Y241D01*
X996Y241D02*
X1004Y241D01*
X1031Y241D02*
X1039Y241D01*
X1060Y241D02*
X1074Y241D01*
X1095Y241D02*
X1104Y241D01*
X1143Y241D02*
X1151Y241D01*
X1226Y241D02*
X1234Y241D01*
X1320Y241D02*
X1328Y241D01*
X1355Y241D02*
X1364Y241D01*
X1392Y241D02*
X1400Y241D01*
X1450Y241D02*
X1458Y241D01*
X1485Y241D02*
X1493Y241D01*
X1550Y241D02*
X1558Y241D01*
X1579Y241D02*
X1588Y241D01*
X1615Y241D02*
X1623Y241D01*
X1656Y241D02*
X1669Y241D01*
X1680Y241D02*
X1688Y241D01*
X282Y240D02*
X290Y240D01*
X317Y240D02*
X325Y240D01*
X360Y240D02*
X377Y240D01*
X411Y240D02*
X419Y240D01*
X429Y240D02*
X437Y240D01*
X486Y240D02*
X495Y240D01*
X502Y240D02*
X510Y240D01*
X617Y240D02*
X630Y240D01*
X642Y240D02*
X650Y240D01*
X704Y240D02*
X714Y240D01*
X754Y240D02*
X762Y240D01*
X803Y240D02*
X807Y240D01*
X827Y240D02*
X836Y240D01*
X866Y240D02*
X874Y240D01*
X933Y240D02*
X936Y240D01*
X957Y240D02*
X965Y240D01*
X996Y240D02*
X1004Y240D01*
X1031Y240D02*
X1039Y240D01*
X1060Y240D02*
X1075Y240D01*
X1094Y240D02*
X1103Y240D01*
X1143Y240D02*
X1151Y240D01*
X1226Y240D02*
X1234Y240D01*
X1320Y240D02*
X1328Y240D01*
X1355Y240D02*
X1364Y240D01*
X1392Y240D02*
X1400Y240D01*
X1450Y240D02*
X1458Y240D01*
X1485Y240D02*
X1493Y240D01*
X1550Y240D02*
X1558Y240D01*
X1580Y240D02*
X1588Y240D01*
X1615Y240D02*
X1623Y240D01*
X1655Y240D02*
X1668Y240D01*
X1680Y240D02*
X1688Y240D01*
X282Y239D02*
X290Y239D01*
X317Y239D02*
X325Y239D01*
X360Y239D02*
X377Y239D01*
X411Y239D02*
X419Y239D01*
X429Y239D02*
X437Y239D01*
X486Y239D02*
X495Y239D01*
X501Y239D02*
X510Y239D01*
X616Y239D02*
X629Y239D01*
X642Y239D02*
X650Y239D01*
X703Y239D02*
X714Y239D01*
X754Y239D02*
X762Y239D01*
X802Y239D02*
X808Y239D01*
X827Y239D02*
X836Y239D01*
X866Y239D02*
X874Y239D01*
X932Y239D02*
X937Y239D01*
X957Y239D02*
X965Y239D01*
X996Y239D02*
X1004Y239D01*
X1031Y239D02*
X1039Y239D01*
X1060Y239D02*
X1076Y239D01*
X1093Y239D02*
X1103Y239D01*
X1143Y239D02*
X1151Y239D01*
X1226Y239D02*
X1234Y239D01*
X1320Y239D02*
X1328Y239D01*
X1355Y239D02*
X1364Y239D01*
X1392Y239D02*
X1400Y239D01*
X1450Y239D02*
X1458Y239D01*
X1485Y239D02*
X1493Y239D01*
X1550Y239D02*
X1558Y239D01*
X1580Y239D02*
X1588Y239D01*
X1615Y239D02*
X1623Y239D01*
X1654Y239D02*
X1667Y239D01*
X1680Y239D02*
X1688Y239D01*
X282Y238D02*
X290Y238D01*
X317Y238D02*
X325Y238D01*
X360Y238D02*
X377Y238D01*
X411Y238D02*
X419Y238D01*
X429Y238D02*
X437Y238D01*
X487Y238D02*
X496Y238D01*
X501Y238D02*
X509Y238D01*
X615Y238D02*
X628Y238D01*
X642Y238D02*
X650Y238D01*
X702Y238D02*
X713Y238D01*
X754Y238D02*
X762Y238D01*
X801Y238D02*
X808Y238D01*
X827Y238D02*
X836Y238D01*
X866Y238D02*
X874Y238D01*
X931Y238D02*
X938Y238D01*
X957Y238D02*
X965Y238D01*
X996Y238D02*
X1004Y238D01*
X1031Y238D02*
X1039Y238D01*
X1060Y238D02*
X1078Y238D01*
X1091Y238D02*
X1102Y238D01*
X1143Y238D02*
X1151Y238D01*
X1226Y238D02*
X1234Y238D01*
X1320Y238D02*
X1328Y238D01*
X1355Y238D02*
X1364Y238D01*
X1392Y238D02*
X1400Y238D01*
X1450Y238D02*
X1458Y238D01*
X1485Y238D02*
X1493Y238D01*
X1550Y238D02*
X1558Y238D01*
X1580Y238D02*
X1589Y238D01*
X1615Y238D02*
X1623Y238D01*
X1653Y238D02*
X1666Y238D01*
X1680Y238D02*
X1688Y238D01*
X282Y237D02*
X290Y237D01*
X317Y237D02*
X325Y237D01*
X360Y237D02*
X377Y237D01*
X411Y237D02*
X419Y237D01*
X429Y237D02*
X437Y237D01*
X487Y237D02*
X496Y237D01*
X500Y237D02*
X509Y237D01*
X613Y237D02*
X626Y237D01*
X642Y237D02*
X650Y237D01*
X701Y237D02*
X712Y237D01*
X754Y237D02*
X762Y237D01*
X801Y237D02*
X809Y237D01*
X827Y237D02*
X835Y237D01*
X866Y237D02*
X874Y237D01*
X931Y237D02*
X938Y237D01*
X957Y237D02*
X965Y237D01*
X996Y237D02*
X1004Y237D01*
X1031Y237D02*
X1039Y237D01*
X1060Y237D02*
X1080Y237D01*
X1089Y237D02*
X1102Y237D01*
X1143Y237D02*
X1151Y237D01*
X1226Y237D02*
X1234Y237D01*
X1320Y237D02*
X1328Y237D01*
X1355Y237D02*
X1364Y237D01*
X1392Y237D02*
X1400Y237D01*
X1450Y237D02*
X1458Y237D01*
X1485Y237D02*
X1493Y237D01*
X1550Y237D02*
X1558Y237D01*
X1580Y237D02*
X1589Y237D01*
X1615Y237D02*
X1623Y237D01*
X1652Y237D02*
X1665Y237D01*
X1680Y237D02*
X1688Y237D01*
X282Y236D02*
X290Y236D01*
X317Y236D02*
X325Y236D01*
X360Y236D02*
X377Y236D01*
X411Y236D02*
X419Y236D01*
X429Y236D02*
X437Y236D01*
X488Y236D02*
X497Y236D01*
X500Y236D02*
X509Y236D01*
X612Y236D02*
X625Y236D01*
X642Y236D02*
X650Y236D01*
X699Y236D02*
X712Y236D01*
X754Y236D02*
X762Y236D01*
X801Y236D02*
X809Y236D01*
X827Y236D02*
X835Y236D01*
X866Y236D02*
X874Y236D01*
X903Y236D02*
X907Y236D01*
X931Y236D02*
X939Y236D01*
X957Y236D02*
X965Y236D01*
X996Y236D02*
X1004Y236D01*
X1031Y236D02*
X1039Y236D01*
X1060Y236D02*
X1101Y236D01*
X1143Y236D02*
X1151Y236D01*
X1226Y236D02*
X1234Y236D01*
X1320Y236D02*
X1328Y236D01*
X1355Y236D02*
X1364Y236D01*
X1392Y236D02*
X1400Y236D01*
X1450Y236D02*
X1458Y236D01*
X1485Y236D02*
X1493Y236D01*
X1550Y236D02*
X1558Y236D01*
X1581Y236D02*
X1590Y236D01*
X1615Y236D02*
X1623Y236D01*
X1650Y236D02*
X1663Y236D01*
X1680Y236D02*
X1688Y236D01*
X282Y235D02*
X290Y235D01*
X317Y235D02*
X325Y235D01*
X360Y235D02*
X377Y235D01*
X411Y235D02*
X419Y235D01*
X429Y235D02*
X437Y235D01*
X488Y235D02*
X497Y235D01*
X499Y235D02*
X508Y235D01*
X611Y235D02*
X624Y235D01*
X642Y235D02*
X650Y235D01*
X698Y235D02*
X711Y235D01*
X754Y235D02*
X762Y235D01*
X801Y235D02*
X810Y235D01*
X827Y235D02*
X835Y235D01*
X866Y235D02*
X875Y235D01*
X902Y235D02*
X908Y235D01*
X931Y235D02*
X940Y235D01*
X956Y235D02*
X965Y235D01*
X996Y235D02*
X1004Y235D01*
X1031Y235D02*
X1039Y235D01*
X1060Y235D02*
X1100Y235D01*
X1143Y235D02*
X1151Y235D01*
X1226Y235D02*
X1234Y235D01*
X1320Y235D02*
X1328Y235D01*
X1355Y235D02*
X1364Y235D01*
X1392Y235D02*
X1400Y235D01*
X1450Y235D02*
X1458Y235D01*
X1485Y235D02*
X1493Y235D01*
X1550Y235D02*
X1558Y235D01*
X1581Y235D02*
X1591Y235D01*
X1615Y235D02*
X1623Y235D01*
X1649Y235D02*
X1662Y235D01*
X1680Y235D02*
X1688Y235D01*
X282Y234D02*
X290Y234D01*
X317Y234D02*
X325Y234D01*
X360Y234D02*
X377Y234D01*
X411Y234D02*
X419Y234D01*
X429Y234D02*
X437Y234D01*
X488Y234D02*
X508Y234D01*
X610Y234D02*
X623Y234D01*
X642Y234D02*
X650Y234D01*
X697Y234D02*
X710Y234D01*
X754Y234D02*
X762Y234D01*
X801Y234D02*
X811Y234D01*
X826Y234D02*
X835Y234D01*
X866Y234D02*
X876Y234D01*
X900Y234D02*
X909Y234D01*
X931Y234D02*
X941Y234D01*
X955Y234D02*
X965Y234D01*
X996Y234D02*
X1004Y234D01*
X1031Y234D02*
X1039Y234D01*
X1060Y234D02*
X1099Y234D01*
X1143Y234D02*
X1151Y234D01*
X1226Y234D02*
X1234Y234D01*
X1320Y234D02*
X1328Y234D01*
X1355Y234D02*
X1364Y234D01*
X1392Y234D02*
X1400Y234D01*
X1450Y234D02*
X1458Y234D01*
X1485Y234D02*
X1493Y234D01*
X1550Y234D02*
X1558Y234D01*
X1581Y234D02*
X1593Y234D01*
X1615Y234D02*
X1623Y234D01*
X1648Y234D02*
X1661Y234D01*
X1680Y234D02*
X1688Y234D01*
X282Y233D02*
X325Y233D01*
X361Y233D02*
X376Y233D01*
X411Y233D02*
X451Y233D01*
X489Y233D02*
X507Y233D01*
X609Y233D02*
X622Y233D01*
X642Y233D02*
X650Y233D01*
X675Y233D02*
X709Y233D01*
X744Y233D02*
X771Y233D01*
X801Y233D02*
X835Y233D01*
X867Y233D02*
X909Y233D01*
X931Y233D02*
X964Y233D01*
X996Y233D02*
X1004Y233D01*
X1031Y233D02*
X1039Y233D01*
X1060Y233D02*
X1068Y233D01*
X1070Y233D02*
X1098Y233D01*
X1133Y233D02*
X1160Y233D01*
X1226Y233D02*
X1234Y233D01*
X1320Y233D02*
X1363Y233D01*
X1392Y233D02*
X1400Y233D01*
X1450Y233D02*
X1493Y233D01*
X1518Y233D02*
X1558Y233D01*
X1582Y233D02*
X1623Y233D01*
X1647Y233D02*
X1660Y233D01*
X1680Y233D02*
X1688Y233D01*
X282Y232D02*
X325Y232D01*
X361Y232D02*
X375Y232D01*
X411Y232D02*
X453Y232D01*
X489Y232D02*
X507Y232D01*
X608Y232D02*
X621Y232D01*
X642Y232D02*
X650Y232D01*
X673Y232D02*
X708Y232D01*
X742Y232D02*
X773Y232D01*
X802Y232D02*
X834Y232D01*
X867Y232D02*
X909Y232D01*
X932Y232D02*
X964Y232D01*
X995Y232D02*
X1003Y232D01*
X1031Y232D02*
X1039Y232D01*
X1060Y232D02*
X1068Y232D01*
X1071Y232D02*
X1097Y232D01*
X1131Y232D02*
X1163Y232D01*
X1226Y232D02*
X1234Y232D01*
X1320Y232D02*
X1363Y232D01*
X1392Y232D02*
X1400Y232D01*
X1450Y232D02*
X1493Y232D01*
X1516Y232D02*
X1558Y232D01*
X1583Y232D02*
X1623Y232D01*
X1646Y232D02*
X1659Y232D01*
X1680Y232D02*
X1688Y232D01*
X282Y231D02*
X325Y231D01*
X363Y231D02*
X373Y231D01*
X411Y231D02*
X454Y231D01*
X490Y231D02*
X506Y231D01*
X607Y231D02*
X619Y231D01*
X642Y231D02*
X650Y231D01*
X672Y231D02*
X706Y231D01*
X741Y231D02*
X774Y231D01*
X803Y231D02*
X834Y231D01*
X868Y231D02*
X909Y231D01*
X932Y231D02*
X964Y231D01*
X995Y231D02*
X1003Y231D01*
X1031Y231D02*
X1039Y231D01*
X1060Y231D02*
X1068Y231D01*
X1073Y231D02*
X1096Y231D01*
X1130Y231D02*
X1164Y231D01*
X1226Y231D02*
X1234Y231D01*
X1320Y231D02*
X1363Y231D01*
X1392Y231D02*
X1400Y231D01*
X1450Y231D02*
X1493Y231D01*
X1515Y231D02*
X1558Y231D01*
X1583Y231D02*
X1623Y231D01*
X1645Y231D02*
X1657Y231D01*
X1680Y231D02*
X1688Y231D01*
X282Y230D02*
X325Y230D01*
X411Y230D02*
X455Y230D01*
X490Y230D02*
X506Y230D01*
X606Y230D02*
X618Y230D01*
X642Y230D02*
X650Y230D01*
X671Y230D02*
X705Y230D01*
X741Y230D02*
X775Y230D01*
X803Y230D02*
X833Y230D01*
X868Y230D02*
X908Y230D01*
X933Y230D02*
X963Y230D01*
X995Y230D02*
X1003Y230D01*
X1031Y230D02*
X1039Y230D01*
X1060Y230D02*
X1068Y230D01*
X1074Y230D02*
X1094Y230D01*
X1130Y230D02*
X1164Y230D01*
X1226Y230D02*
X1234Y230D01*
X1320Y230D02*
X1363Y230D01*
X1392Y230D02*
X1400Y230D01*
X1450Y230D02*
X1493Y230D01*
X1515Y230D02*
X1558Y230D01*
X1584Y230D02*
X1623Y230D01*
X1644Y230D02*
X1656Y230D01*
X1680Y230D02*
X1688Y230D01*
X283Y229D02*
X324Y229D01*
X411Y229D02*
X455Y229D01*
X491Y229D02*
X506Y229D01*
X606Y229D02*
X617Y229D01*
X642Y229D02*
X650Y229D01*
X671Y229D02*
X704Y229D01*
X740Y229D02*
X775Y229D01*
X804Y229D02*
X832Y229D01*
X869Y229D02*
X908Y229D01*
X934Y229D02*
X962Y229D01*
X995Y229D02*
X1003Y229D01*
X1031Y229D02*
X1039Y229D01*
X1060Y229D02*
X1068Y229D01*
X1076Y229D02*
X1092Y229D01*
X1130Y229D02*
X1164Y229D01*
X1226Y229D02*
X1234Y229D01*
X1321Y229D02*
X1362Y229D01*
X1392Y229D02*
X1400Y229D01*
X1451Y229D02*
X1492Y229D01*
X1514Y229D02*
X1558Y229D01*
X1585Y229D02*
X1623Y229D01*
X1644Y229D02*
X1655Y229D01*
X1680Y229D02*
X1688Y229D01*
X283Y228D02*
X324Y228D01*
X412Y228D02*
X455Y228D01*
X491Y228D02*
X505Y228D01*
X606Y228D02*
X616Y228D01*
X642Y228D02*
X650Y228D01*
X671Y228D02*
X703Y228D01*
X740Y228D02*
X775Y228D01*
X805Y228D02*
X831Y228D01*
X870Y228D02*
X907Y228D01*
X935Y228D02*
X961Y228D01*
X996Y228D02*
X1003Y228D01*
X1031Y228D02*
X1039Y228D01*
X1060Y228D02*
X1068Y228D01*
X1080Y228D02*
X1089Y228D01*
X1130Y228D02*
X1164Y228D01*
X1226Y228D02*
X1234Y228D01*
X1321Y228D02*
X1362Y228D01*
X1392Y228D02*
X1400Y228D01*
X1451Y228D02*
X1492Y228D01*
X1514Y228D02*
X1558Y228D01*
X1586Y228D02*
X1623Y228D01*
X1644Y228D02*
X1654Y228D01*
X1680Y228D02*
X1688Y228D01*
X284Y227D02*
X323Y227D01*
X412Y227D02*
X455Y227D01*
X492Y227D02*
X505Y227D01*
X606Y227D02*
X615Y227D01*
X642Y227D02*
X649Y227D01*
X671Y227D02*
X702Y227D01*
X741Y227D02*
X775Y227D01*
X806Y227D02*
X830Y227D01*
X871Y227D02*
X905Y227D01*
X936Y227D02*
X960Y227D01*
X996Y227D02*
X1003Y227D01*
X1031Y227D02*
X1039Y227D01*
X1060Y227D02*
X1068Y227D01*
X1130Y227D02*
X1164Y227D01*
X1226Y227D02*
X1233Y227D01*
X1322Y227D02*
X1361Y227D01*
X1392Y227D02*
X1399Y227D01*
X1452Y227D02*
X1491Y227D01*
X1515Y227D02*
X1558Y227D01*
X1588Y227D02*
X1623Y227D01*
X1645Y227D02*
X1653Y227D01*
X1680Y227D02*
X1687Y227D01*
X285Y226D02*
X322Y226D01*
X412Y226D02*
X454Y226D01*
X492Y226D02*
X504Y226D01*
X607Y226D02*
X614Y226D01*
X643Y226D02*
X649Y226D01*
X672Y226D02*
X700Y226D01*
X741Y226D02*
X774Y226D01*
X807Y226D02*
X829Y226D01*
X873Y226D02*
X903Y226D01*
X937Y226D02*
X959Y226D01*
X996Y226D02*
X1002Y226D01*
X1032Y226D02*
X1038Y226D01*
X1060Y226D02*
X1068Y226D01*
X1130Y226D02*
X1163Y226D01*
X1227Y226D02*
X1233Y226D01*
X1323Y226D02*
X1360Y226D01*
X1393Y226D02*
X1399Y226D01*
X1453Y226D02*
X1490Y226D01*
X1515Y226D02*
X1558Y226D01*
X1590Y226D02*
X1623Y226D01*
X1645Y226D02*
X1652Y226D01*
X1681Y226D02*
X1687Y226D01*
X287Y225D02*
X320Y225D01*
X413Y225D02*
X453Y225D01*
X493Y225D02*
X503Y225D01*
X608Y225D02*
X612Y225D01*
X644Y225D02*
X648Y225D01*
X673Y225D02*
X698Y225D01*
X742Y225D02*
X773Y225D01*
X809Y225D02*
X827Y225D01*
X875Y225D02*
X901Y225D01*
X939Y225D02*
X957Y225D01*
X997Y225D02*
X1001Y225D01*
X1033Y225D02*
X1037Y225D01*
X1060Y225D02*
X1068Y225D01*
X1132Y225D02*
X1162Y225D01*
X1228Y225D02*
X1232Y225D01*
X1325Y225D02*
X1358Y225D01*
X1394Y225D02*
X1398Y225D01*
X1455Y225D02*
X1488Y225D01*
X1516Y225D02*
X1558Y225D01*
X1592Y225D02*
X1623Y225D01*
X1646Y225D02*
X1650Y225D01*
X1682Y225D02*
X1686Y225D01*
X1060Y224D02*
X1068Y224D01*
X1060Y223D02*
X1068Y223D01*
X1060Y222D02*
X1068Y222D01*
X1060Y221D02*
X1068Y221D01*
X1060Y220D02*
X1069Y220D01*
X1060Y219D02*
X1069Y219D01*
X1061Y218D02*
X1070Y218D01*
X1061Y217D02*
X1071Y217D01*
X1061Y216D02*
X1072Y216D01*
X1062Y215D02*
X1073Y215D01*
X1062Y214D02*
X1096Y214D01*
X1063Y213D02*
X1098Y213D01*
X1064Y212D02*
X1099Y212D01*
X1065Y211D02*
X1099Y211D01*
X1066Y210D02*
X1099Y210D01*
X1067Y209D02*
X1099Y209D01*
X1069Y208D02*
X1099Y208D01*
X1070Y207D02*
X1099Y207D01*
X1072Y206D02*
X1098Y206D01*
X334Y138D02*
X355Y138D01*
X378Y138D02*
X402Y138D01*
X425Y138D02*
X447Y138D01*
X473Y138D02*
X498Y138D01*
X592Y138D02*
X593Y138D01*
X714Y138D02*
X738Y138D01*
X877Y138D02*
X878Y138D01*
X947Y138D02*
X965Y138D01*
X333Y137D02*
X356Y137D01*
X376Y137D02*
X404Y137D01*
X423Y137D02*
X449Y137D01*
X471Y137D02*
X499Y137D01*
X590Y137D02*
X594Y137D01*
X711Y137D02*
X738Y137D01*
X876Y137D02*
X880Y137D01*
X945Y137D02*
X966Y137D01*
X332Y136D02*
X357Y136D01*
X375Y136D02*
X404Y136D01*
X422Y136D02*
X450Y136D01*
X470Y136D02*
X500Y136D01*
X590Y136D02*
X595Y136D01*
X710Y136D02*
X738Y136D01*
X875Y136D02*
X881Y136D01*
X945Y136D02*
X967Y136D01*
X332Y135D02*
X357Y135D01*
X374Y135D02*
X404Y135D01*
X422Y135D02*
X451Y135D01*
X469Y135D02*
X500Y135D01*
X589Y135D02*
X595Y135D01*
X709Y135D02*
X738Y135D01*
X875Y135D02*
X881Y135D01*
X944Y135D02*
X967Y135D01*
X332Y134D02*
X357Y134D01*
X373Y134D02*
X404Y134D01*
X421Y134D02*
X452Y134D01*
X469Y134D02*
X500Y134D01*
X589Y134D02*
X595Y134D01*
X708Y134D02*
X738Y134D01*
X875Y134D02*
X881Y134D01*
X944Y134D02*
X967Y134D01*
X332Y133D02*
X357Y133D01*
X373Y133D02*
X404Y133D01*
X421Y133D02*
X452Y133D01*
X468Y133D02*
X499Y133D01*
X589Y133D02*
X595Y133D01*
X707Y133D02*
X738Y133D01*
X875Y133D02*
X881Y133D01*
X945Y133D02*
X966Y133D01*
X334Y132D02*
X357Y132D01*
X373Y132D02*
X403Y132D01*
X420Y132D02*
X452Y132D01*
X468Y132D02*
X498Y132D01*
X589Y132D02*
X595Y132D01*
X707Y132D02*
X738Y132D01*
X875Y132D02*
X881Y132D01*
X946Y132D02*
X965Y132D01*
X351Y131D02*
X357Y131D01*
X373Y131D02*
X378Y131D01*
X420Y131D02*
X426Y131D01*
X447Y131D02*
X452Y131D01*
X468Y131D02*
X474Y131D01*
X589Y131D02*
X595Y131D01*
X707Y131D02*
X713Y131D01*
X732Y131D02*
X738Y131D01*
X875Y131D02*
X881Y131D01*
X951Y131D02*
X956Y131D01*
X351Y130D02*
X357Y130D01*
X373Y130D02*
X378Y130D01*
X420Y130D02*
X426Y130D01*
X447Y130D02*
X452Y130D01*
X468Y130D02*
X474Y130D01*
X589Y130D02*
X595Y130D01*
X706Y130D02*
X712Y130D01*
X732Y130D02*
X738Y130D01*
X875Y130D02*
X881Y130D01*
X951Y130D02*
X956Y130D01*
X351Y129D02*
X357Y129D01*
X373Y129D02*
X378Y129D01*
X420Y129D02*
X426Y129D01*
X447Y129D02*
X452Y129D01*
X468Y129D02*
X474Y129D01*
X589Y129D02*
X595Y129D01*
X706Y129D02*
X712Y129D01*
X732Y129D02*
X738Y129D01*
X875Y129D02*
X881Y129D01*
X951Y129D02*
X956Y129D01*
X351Y128D02*
X357Y128D01*
X373Y128D02*
X378Y128D01*
X420Y128D02*
X426Y128D01*
X447Y128D02*
X452Y128D01*
X468Y128D02*
X474Y128D01*
X589Y128D02*
X595Y128D01*
X706Y128D02*
X712Y128D01*
X732Y128D02*
X738Y128D01*
X875Y128D02*
X881Y128D01*
X951Y128D02*
X956Y128D01*
X351Y127D02*
X357Y127D01*
X373Y127D02*
X378Y127D01*
X420Y127D02*
X426Y127D01*
X447Y127D02*
X452Y127D01*
X468Y127D02*
X474Y127D01*
X589Y127D02*
X595Y127D01*
X706Y127D02*
X712Y127D01*
X732Y127D02*
X738Y127D01*
X875Y127D02*
X881Y127D01*
X951Y127D02*
X956Y127D01*
X351Y126D02*
X357Y126D01*
X373Y126D02*
X378Y126D01*
X420Y126D02*
X426Y126D01*
X447Y126D02*
X452Y126D01*
X468Y126D02*
X474Y126D01*
X589Y126D02*
X595Y126D01*
X706Y126D02*
X712Y126D01*
X732Y126D02*
X738Y126D01*
X875Y126D02*
X881Y126D01*
X951Y126D02*
X956Y126D01*
X351Y125D02*
X357Y125D01*
X373Y125D02*
X378Y125D01*
X420Y125D02*
X426Y125D01*
X447Y125D02*
X452Y125D01*
X468Y125D02*
X474Y125D01*
X589Y125D02*
X595Y125D01*
X706Y125D02*
X712Y125D01*
X732Y125D02*
X738Y125D01*
X875Y125D02*
X881Y125D01*
X951Y125D02*
X956Y125D01*
X351Y124D02*
X357Y124D01*
X373Y124D02*
X378Y124D01*
X420Y124D02*
X426Y124D01*
X447Y124D02*
X452Y124D01*
X468Y124D02*
X474Y124D01*
X569Y124D02*
X570Y124D01*
X589Y124D02*
X595Y124D01*
X618Y124D02*
X628Y124D01*
X639Y124D02*
X641Y124D01*
X667Y124D02*
X684Y124D01*
X706Y124D02*
X712Y124D01*
X732Y124D02*
X738Y124D01*
X809Y124D02*
X816Y124D01*
X829Y124D02*
X831Y124D01*
X857Y124D02*
X864Y124D01*
X875Y124D02*
X881Y124D01*
X907Y124D02*
X918Y124D01*
X951Y124D02*
X956Y124D01*
X351Y123D02*
X357Y123D01*
X373Y123D02*
X378Y123D01*
X420Y123D02*
X426Y123D01*
X447Y123D02*
X452Y123D01*
X468Y123D02*
X474Y123D01*
X567Y123D02*
X572Y123D01*
X589Y123D02*
X595Y123D01*
X615Y123D02*
X629Y123D01*
X638Y123D02*
X642Y123D01*
X664Y123D02*
X685Y123D01*
X706Y123D02*
X712Y123D01*
X732Y123D02*
X738Y123D01*
X807Y123D02*
X819Y123D01*
X828Y123D02*
X832Y123D01*
X855Y123D02*
X867Y123D01*
X875Y123D02*
X881Y123D01*
X904Y123D02*
X921Y123D01*
X951Y123D02*
X956Y123D01*
X351Y122D02*
X357Y122D01*
X373Y122D02*
X378Y122D01*
X420Y122D02*
X426Y122D01*
X447Y122D02*
X452Y122D01*
X468Y122D02*
X474Y122D01*
X567Y122D02*
X573Y122D01*
X589Y122D02*
X595Y122D01*
X614Y122D02*
X630Y122D01*
X637Y122D02*
X642Y122D01*
X663Y122D02*
X685Y122D01*
X706Y122D02*
X712Y122D01*
X732Y122D02*
X738Y122D01*
X805Y122D02*
X821Y122D01*
X827Y122D02*
X833Y122D01*
X853Y122D02*
X869Y122D01*
X875Y122D02*
X881Y122D01*
X903Y122D02*
X922Y122D01*
X951Y122D02*
X956Y122D01*
X351Y121D02*
X357Y121D01*
X373Y121D02*
X378Y121D01*
X420Y121D02*
X426Y121D01*
X447Y121D02*
X452Y121D01*
X468Y121D02*
X474Y121D01*
X567Y121D02*
X574Y121D01*
X589Y121D02*
X595Y121D01*
X613Y121D02*
X631Y121D01*
X637Y121D02*
X643Y121D01*
X661Y121D02*
X686Y121D01*
X706Y121D02*
X712Y121D01*
X732Y121D02*
X738Y121D01*
X804Y121D02*
X822Y121D01*
X827Y121D02*
X833Y121D01*
X852Y121D02*
X870Y121D01*
X875Y121D02*
X881Y121D01*
X901Y121D02*
X924Y121D01*
X951Y121D02*
X956Y121D01*
X351Y120D02*
X357Y120D01*
X373Y120D02*
X378Y120D01*
X420Y120D02*
X426Y120D01*
X447Y120D02*
X452Y120D01*
X468Y120D02*
X474Y120D01*
X567Y120D02*
X575Y120D01*
X589Y120D02*
X595Y120D01*
X612Y120D02*
X633Y120D01*
X637Y120D02*
X643Y120D01*
X660Y120D02*
X685Y120D01*
X706Y120D02*
X712Y120D01*
X732Y120D02*
X738Y120D01*
X803Y120D02*
X824Y120D01*
X827Y120D02*
X833Y120D01*
X852Y120D02*
X872Y120D01*
X875Y120D02*
X881Y120D01*
X900Y120D02*
X925Y120D01*
X951Y120D02*
X956Y120D01*
X351Y119D02*
X357Y119D01*
X373Y119D02*
X378Y119D01*
X420Y119D02*
X426Y119D01*
X447Y119D02*
X452Y119D01*
X468Y119D02*
X474Y119D01*
X567Y119D02*
X576Y119D01*
X589Y119D02*
X595Y119D01*
X612Y119D02*
X634Y119D01*
X637Y119D02*
X643Y119D01*
X660Y119D02*
X685Y119D01*
X706Y119D02*
X712Y119D01*
X732Y119D02*
X738Y119D01*
X803Y119D02*
X833Y119D01*
X851Y119D02*
X881Y119D01*
X899Y119D02*
X926Y119D01*
X951Y119D02*
X956Y119D01*
X351Y118D02*
X357Y118D01*
X373Y118D02*
X378Y118D01*
X420Y118D02*
X426Y118D01*
X447Y118D02*
X452Y118D01*
X468Y118D02*
X474Y118D01*
X568Y118D02*
X577Y118D01*
X589Y118D02*
X595Y118D01*
X611Y118D02*
X635Y118D01*
X637Y118D02*
X643Y118D01*
X659Y118D02*
X684Y118D01*
X706Y118D02*
X712Y118D01*
X732Y118D02*
X738Y118D01*
X802Y118D02*
X833Y118D01*
X851Y118D02*
X881Y118D01*
X899Y118D02*
X926Y118D01*
X951Y118D02*
X956Y118D01*
X351Y117D02*
X357Y117D01*
X373Y117D02*
X378Y117D01*
X420Y117D02*
X426Y117D01*
X447Y117D02*
X452Y117D01*
X468Y117D02*
X474Y117D01*
X569Y117D02*
X579Y117D01*
X589Y117D02*
X595Y117D01*
X611Y117D02*
X618Y117D01*
X627Y117D02*
X643Y117D01*
X659Y117D02*
X666Y117D01*
X706Y117D02*
X712Y117D01*
X732Y117D02*
X738Y117D01*
X802Y117D02*
X809Y117D01*
X817Y117D02*
X833Y117D01*
X850Y117D02*
X857Y117D01*
X865Y117D02*
X881Y117D01*
X898Y117D02*
X906Y117D01*
X919Y117D02*
X927Y117D01*
X951Y117D02*
X956Y117D01*
X351Y116D02*
X357Y116D01*
X373Y116D02*
X379Y116D01*
X420Y116D02*
X426Y116D01*
X447Y116D02*
X452Y116D01*
X468Y116D02*
X474Y116D01*
X571Y116D02*
X580Y116D01*
X589Y116D02*
X595Y116D01*
X611Y116D02*
X617Y116D01*
X628Y116D02*
X643Y116D01*
X659Y116D02*
X665Y116D01*
X706Y116D02*
X712Y116D01*
X732Y116D02*
X738Y116D01*
X802Y116D02*
X808Y116D01*
X819Y116D02*
X833Y116D01*
X850Y116D02*
X856Y116D01*
X867Y116D02*
X881Y116D01*
X897Y116D02*
X904Y116D01*
X920Y116D02*
X928Y116D01*
X951Y116D02*
X956Y116D01*
X351Y115D02*
X357Y115D01*
X373Y115D02*
X401Y115D01*
X420Y115D02*
X426Y115D01*
X447Y115D02*
X452Y115D01*
X468Y115D02*
X496Y115D01*
X572Y115D02*
X581Y115D01*
X589Y115D02*
X595Y115D01*
X611Y115D02*
X617Y115D01*
X629Y115D02*
X643Y115D01*
X659Y115D02*
X664Y115D01*
X706Y115D02*
X712Y115D01*
X732Y115D02*
X738Y115D01*
X802Y115D02*
X808Y115D01*
X820Y115D02*
X833Y115D01*
X850Y115D02*
X856Y115D01*
X868Y115D02*
X881Y115D01*
X897Y115D02*
X904Y115D01*
X921Y115D02*
X928Y115D01*
X951Y115D02*
X956Y115D01*
X351Y114D02*
X357Y114D01*
X373Y114D02*
X402Y114D01*
X420Y114D02*
X426Y114D01*
X447Y114D02*
X452Y114D01*
X468Y114D02*
X498Y114D01*
X573Y114D02*
X582Y114D01*
X589Y114D02*
X595Y114D01*
X611Y114D02*
X617Y114D01*
X630Y114D02*
X643Y114D01*
X658Y114D02*
X664Y114D01*
X707Y114D02*
X713Y114D01*
X732Y114D02*
X738Y114D01*
X802Y114D02*
X807Y114D01*
X822Y114D02*
X833Y114D01*
X850Y114D02*
X855Y114D01*
X870Y114D02*
X881Y114D01*
X897Y114D02*
X903Y114D01*
X922Y114D02*
X928Y114D01*
X951Y114D02*
X956Y114D01*
X351Y113D02*
X357Y113D01*
X374Y113D02*
X403Y113D01*
X420Y113D02*
X426Y113D01*
X447Y113D02*
X452Y113D01*
X469Y113D02*
X498Y113D01*
X574Y113D02*
X583Y113D01*
X589Y113D02*
X595Y113D01*
X611Y113D02*
X616Y113D01*
X631Y113D02*
X643Y113D01*
X658Y113D02*
X664Y113D01*
X707Y113D02*
X738Y113D01*
X802Y113D02*
X807Y113D01*
X824Y113D02*
X833Y113D01*
X850Y113D02*
X855Y113D01*
X872Y113D02*
X881Y113D01*
X897Y113D02*
X902Y113D01*
X923Y113D02*
X928Y113D01*
X951Y113D02*
X956Y113D01*
X327Y112D02*
X357Y112D01*
X374Y112D02*
X404Y112D01*
X420Y112D02*
X426Y112D01*
X447Y112D02*
X452Y112D01*
X469Y112D02*
X499Y112D01*
X575Y112D02*
X585Y112D01*
X589Y112D02*
X595Y112D01*
X611Y112D02*
X616Y112D01*
X633Y112D02*
X643Y112D01*
X658Y112D02*
X664Y112D01*
X707Y112D02*
X738Y112D01*
X802Y112D02*
X807Y112D01*
X825Y112D02*
X833Y112D01*
X850Y112D02*
X855Y112D01*
X873Y112D02*
X881Y112D01*
X897Y112D02*
X902Y112D01*
X923Y112D02*
X928Y112D01*
X951Y112D02*
X956Y112D01*
X326Y111D02*
X357Y111D01*
X375Y111D02*
X404Y111D01*
X420Y111D02*
X426Y111D01*
X447Y111D02*
X452Y111D01*
X470Y111D02*
X500Y111D01*
X576Y111D02*
X586Y111D01*
X589Y111D02*
X595Y111D01*
X612Y111D02*
X616Y111D01*
X634Y111D02*
X643Y111D01*
X658Y111D02*
X664Y111D01*
X708Y111D02*
X738Y111D01*
X802Y111D02*
X807Y111D01*
X827Y111D02*
X833Y111D01*
X850Y111D02*
X855Y111D01*
X875Y111D02*
X881Y111D01*
X897Y111D02*
X902Y111D01*
X923Y111D02*
X928Y111D01*
X951Y111D02*
X956Y111D01*
X325Y110D02*
X357Y110D01*
X377Y110D02*
X404Y110D01*
X420Y110D02*
X426Y110D01*
X447Y110D02*
X452Y110D01*
X472Y110D02*
X500Y110D01*
X578Y110D02*
X587Y110D01*
X589Y110D02*
X595Y110D01*
X613Y110D02*
X614Y110D01*
X635Y110D02*
X643Y110D01*
X658Y110D02*
X664Y110D01*
X667Y110D02*
X682Y110D01*
X709Y110D02*
X738Y110D01*
X802Y110D02*
X807Y110D01*
X827Y110D02*
X833Y110D01*
X850Y110D02*
X855Y110D01*
X875Y110D02*
X881Y110D01*
X897Y110D02*
X902Y110D01*
X923Y110D02*
X928Y110D01*
X951Y110D02*
X956Y110D01*
X325Y109D02*
X357Y109D01*
X399Y109D02*
X405Y109D01*
X420Y109D02*
X426Y109D01*
X447Y109D02*
X452Y109D01*
X494Y109D02*
X500Y109D01*
X579Y109D02*
X595Y109D01*
X636Y109D02*
X643Y109D01*
X658Y109D02*
X685Y109D01*
X710Y109D02*
X738Y109D01*
X802Y109D02*
X807Y109D01*
X827Y109D02*
X833Y109D01*
X850Y109D02*
X855Y109D01*
X875Y109D02*
X881Y109D01*
X897Y109D02*
X902Y109D01*
X923Y109D02*
X928Y109D01*
X951Y109D02*
X956Y109D01*
X325Y108D02*
X357Y108D01*
X399Y108D02*
X405Y108D01*
X420Y108D02*
X426Y108D01*
X447Y108D02*
X452Y108D01*
X494Y108D02*
X500Y108D01*
X580Y108D02*
X595Y108D01*
X637Y108D02*
X643Y108D01*
X658Y108D02*
X687Y108D01*
X711Y108D02*
X738Y108D01*
X802Y108D02*
X807Y108D01*
X827Y108D02*
X833Y108D01*
X850Y108D02*
X855Y108D01*
X875Y108D02*
X881Y108D01*
X897Y108D02*
X902Y108D01*
X923Y108D02*
X928Y108D01*
X951Y108D02*
X956Y108D01*
X325Y107D02*
X357Y107D01*
X399Y107D02*
X405Y107D01*
X420Y107D02*
X426Y107D01*
X447Y107D02*
X452Y107D01*
X494Y107D02*
X500Y107D01*
X581Y107D02*
X595Y107D01*
X637Y107D02*
X643Y107D01*
X658Y107D02*
X688Y107D01*
X713Y107D02*
X738Y107D01*
X802Y107D02*
X807Y107D01*
X827Y107D02*
X833Y107D01*
X850Y107D02*
X855Y107D01*
X875Y107D02*
X881Y107D01*
X897Y107D02*
X902Y107D01*
X923Y107D02*
X928Y107D01*
X951Y107D02*
X956Y107D01*
X971Y107D02*
X975Y107D01*
X325Y106D02*
X357Y106D01*
X399Y106D02*
X405Y106D01*
X420Y106D02*
X426Y106D01*
X447Y106D02*
X452Y106D01*
X494Y106D02*
X500Y106D01*
X580Y106D02*
X595Y106D01*
X637Y106D02*
X643Y106D01*
X658Y106D02*
X688Y106D01*
X732Y106D02*
X738Y106D01*
X802Y106D02*
X807Y106D01*
X827Y106D02*
X833Y106D01*
X850Y106D02*
X855Y106D01*
X875Y106D02*
X881Y106D01*
X897Y106D02*
X902Y106D01*
X923Y106D02*
X928Y106D01*
X951Y106D02*
X956Y106D01*
X970Y106D02*
X975Y106D01*
X325Y105D02*
X331Y105D01*
X351Y105D02*
X357Y105D01*
X399Y105D02*
X405Y105D01*
X420Y105D02*
X426Y105D01*
X447Y105D02*
X452Y105D01*
X494Y105D02*
X500Y105D01*
X579Y105D02*
X595Y105D01*
X637Y105D02*
X643Y105D01*
X658Y105D02*
X689Y105D01*
X732Y105D02*
X738Y105D01*
X802Y105D02*
X807Y105D01*
X827Y105D02*
X833Y105D01*
X850Y105D02*
X855Y105D01*
X875Y105D02*
X881Y105D01*
X897Y105D02*
X902Y105D01*
X923Y105D02*
X928Y105D01*
X951Y105D02*
X956Y105D01*
X970Y105D02*
X976Y105D01*
X325Y104D02*
X331Y104D01*
X351Y104D02*
X357Y104D01*
X399Y104D02*
X405Y104D01*
X420Y104D02*
X426Y104D01*
X447Y104D02*
X452Y104D01*
X494Y104D02*
X500Y104D01*
X578Y104D02*
X595Y104D01*
X637Y104D02*
X643Y104D01*
X658Y104D02*
X690Y104D01*
X732Y104D02*
X738Y104D01*
X802Y104D02*
X807Y104D01*
X827Y104D02*
X833Y104D01*
X849Y104D02*
X855Y104D01*
X875Y104D02*
X881Y104D01*
X897Y104D02*
X902Y104D01*
X923Y104D02*
X928Y104D01*
X951Y104D02*
X956Y104D01*
X970Y104D02*
X976Y104D01*
X325Y103D02*
X331Y103D01*
X351Y103D02*
X357Y103D01*
X399Y103D02*
X405Y103D01*
X420Y103D02*
X426Y103D01*
X447Y103D02*
X452Y103D01*
X494Y103D02*
X500Y103D01*
X577Y103D02*
X595Y103D01*
X637Y103D02*
X643Y103D01*
X658Y103D02*
X665Y103D01*
X684Y103D02*
X690Y103D01*
X732Y103D02*
X738Y103D01*
X802Y103D02*
X807Y103D01*
X827Y103D02*
X833Y103D01*
X849Y103D02*
X855Y103D01*
X875Y103D02*
X881Y103D01*
X897Y103D02*
X902Y103D01*
X923Y103D02*
X928Y103D01*
X951Y103D02*
X956Y103D01*
X970Y103D02*
X976Y103D01*
X325Y102D02*
X331Y102D01*
X351Y102D02*
X357Y102D01*
X399Y102D02*
X405Y102D01*
X420Y102D02*
X426Y102D01*
X447Y102D02*
X452Y102D01*
X494Y102D02*
X500Y102D01*
X575Y102D02*
X585Y102D01*
X587Y102D02*
X595Y102D01*
X637Y102D02*
X643Y102D01*
X658Y102D02*
X664Y102D01*
X685Y102D02*
X690Y102D01*
X732Y102D02*
X738Y102D01*
X802Y102D02*
X807Y102D01*
X827Y102D02*
X833Y102D01*
X849Y102D02*
X855Y102D01*
X875Y102D02*
X881Y102D01*
X897Y102D02*
X902Y102D01*
X923Y102D02*
X928Y102D01*
X951Y102D02*
X956Y102D01*
X970Y102D02*
X976Y102D01*
X325Y101D02*
X331Y101D01*
X351Y101D02*
X357Y101D01*
X399Y101D02*
X405Y101D01*
X420Y101D02*
X426Y101D01*
X447Y101D02*
X452Y101D01*
X494Y101D02*
X500Y101D01*
X574Y101D02*
X583Y101D01*
X588Y101D02*
X595Y101D01*
X637Y101D02*
X643Y101D01*
X658Y101D02*
X664Y101D01*
X685Y101D02*
X690Y101D01*
X732Y101D02*
X738Y101D01*
X802Y101D02*
X807Y101D01*
X827Y101D02*
X833Y101D01*
X849Y101D02*
X855Y101D01*
X875Y101D02*
X881Y101D01*
X897Y101D02*
X902Y101D01*
X923Y101D02*
X928Y101D01*
X951Y101D02*
X956Y101D01*
X970Y101D02*
X976Y101D01*
X325Y100D02*
X331Y100D01*
X351Y100D02*
X357Y100D01*
X399Y100D02*
X405Y100D01*
X420Y100D02*
X426Y100D01*
X447Y100D02*
X452Y100D01*
X494Y100D02*
X500Y100D01*
X573Y100D02*
X582Y100D01*
X589Y100D02*
X595Y100D01*
X637Y100D02*
X643Y100D01*
X658Y100D02*
X664Y100D01*
X685Y100D02*
X690Y100D01*
X732Y100D02*
X738Y100D01*
X802Y100D02*
X807Y100D01*
X827Y100D02*
X833Y100D01*
X849Y100D02*
X855Y100D01*
X875Y100D02*
X881Y100D01*
X897Y100D02*
X902Y100D01*
X923Y100D02*
X928Y100D01*
X951Y100D02*
X956Y100D01*
X970Y100D02*
X976Y100D01*
X325Y99D02*
X331Y99D01*
X351Y99D02*
X357Y99D01*
X399Y99D02*
X405Y99D01*
X420Y99D02*
X426Y99D01*
X447Y99D02*
X452Y99D01*
X494Y99D02*
X500Y99D01*
X572Y99D02*
X581Y99D01*
X589Y99D02*
X595Y99D01*
X637Y99D02*
X643Y99D01*
X658Y99D02*
X664Y99D01*
X685Y99D02*
X690Y99D01*
X732Y99D02*
X738Y99D01*
X802Y99D02*
X807Y99D01*
X827Y99D02*
X833Y99D01*
X849Y99D02*
X855Y99D01*
X875Y99D02*
X881Y99D01*
X897Y99D02*
X902Y99D01*
X923Y99D02*
X928Y99D01*
X951Y99D02*
X956Y99D01*
X970Y99D02*
X976Y99D01*
X325Y98D02*
X331Y98D01*
X351Y98D02*
X357Y98D01*
X399Y98D02*
X405Y98D01*
X420Y98D02*
X426Y98D01*
X447Y98D02*
X452Y98D01*
X494Y98D02*
X500Y98D01*
X571Y98D02*
X580Y98D01*
X589Y98D02*
X595Y98D01*
X637Y98D02*
X643Y98D01*
X658Y98D02*
X664Y98D01*
X685Y98D02*
X690Y98D01*
X732Y98D02*
X738Y98D01*
X802Y98D02*
X807Y98D01*
X827Y98D02*
X833Y98D01*
X849Y98D02*
X855Y98D01*
X875Y98D02*
X881Y98D01*
X897Y98D02*
X902Y98D01*
X923Y98D02*
X928Y98D01*
X951Y98D02*
X956Y98D01*
X970Y98D02*
X976Y98D01*
X325Y97D02*
X331Y97D01*
X351Y97D02*
X357Y97D01*
X399Y97D02*
X405Y97D01*
X420Y97D02*
X426Y97D01*
X447Y97D02*
X452Y97D01*
X494Y97D02*
X500Y97D01*
X569Y97D02*
X579Y97D01*
X589Y97D02*
X595Y97D01*
X637Y97D02*
X643Y97D01*
X658Y97D02*
X665Y97D01*
X685Y97D02*
X690Y97D01*
X732Y97D02*
X738Y97D01*
X802Y97D02*
X807Y97D01*
X827Y97D02*
X833Y97D01*
X849Y97D02*
X855Y97D01*
X875Y97D02*
X881Y97D01*
X897Y97D02*
X903Y97D01*
X922Y97D02*
X928Y97D01*
X951Y97D02*
X956Y97D01*
X970Y97D02*
X976Y97D01*
X325Y96D02*
X331Y96D01*
X351Y96D02*
X357Y96D01*
X399Y96D02*
X405Y96D01*
X420Y96D02*
X426Y96D01*
X447Y96D02*
X452Y96D01*
X494Y96D02*
X500Y96D01*
X568Y96D02*
X578Y96D01*
X589Y96D02*
X595Y96D01*
X637Y96D02*
X643Y96D01*
X658Y96D02*
X667Y96D01*
X685Y96D02*
X690Y96D01*
X732Y96D02*
X738Y96D01*
X802Y96D02*
X807Y96D01*
X827Y96D02*
X833Y96D01*
X849Y96D02*
X855Y96D01*
X875Y96D02*
X881Y96D01*
X897Y96D02*
X904Y96D01*
X921Y96D02*
X928Y96D01*
X951Y96D02*
X957Y96D01*
X970Y96D02*
X976Y96D01*
X325Y95D02*
X331Y95D01*
X351Y95D02*
X357Y95D01*
X399Y95D02*
X405Y95D01*
X420Y95D02*
X426Y95D01*
X447Y95D02*
X452Y95D01*
X494Y95D02*
X500Y95D01*
X567Y95D02*
X576Y95D01*
X589Y95D02*
X595Y95D01*
X637Y95D02*
X643Y95D01*
X658Y95D02*
X668Y95D01*
X685Y95D02*
X690Y95D01*
X732Y95D02*
X738Y95D01*
X802Y95D02*
X807Y95D01*
X827Y95D02*
X833Y95D01*
X849Y95D02*
X855Y95D01*
X875Y95D02*
X881Y95D01*
X897Y95D02*
X905Y95D01*
X920Y95D02*
X928Y95D01*
X951Y95D02*
X957Y95D01*
X970Y95D02*
X976Y95D01*
X325Y94D02*
X331Y94D01*
X351Y94D02*
X357Y94D01*
X399Y94D02*
X405Y94D01*
X420Y94D02*
X426Y94D01*
X447Y94D02*
X452Y94D01*
X494Y94D02*
X500Y94D01*
X566Y94D02*
X575Y94D01*
X589Y94D02*
X595Y94D01*
X637Y94D02*
X643Y94D01*
X658Y94D02*
X670Y94D01*
X684Y94D02*
X690Y94D01*
X732Y94D02*
X738Y94D01*
X802Y94D02*
X807Y94D01*
X827Y94D02*
X833Y94D01*
X849Y94D02*
X855Y94D01*
X875Y94D02*
X881Y94D01*
X898Y94D02*
X906Y94D01*
X919Y94D02*
X927Y94D01*
X951Y94D02*
X958Y94D01*
X969Y94D02*
X976Y94D01*
X325Y93D02*
X357Y93D01*
X374Y93D02*
X405Y93D01*
X420Y93D02*
X452Y93D01*
X470Y93D02*
X500Y93D01*
X565Y93D02*
X574Y93D01*
X589Y93D02*
X595Y93D01*
X637Y93D02*
X643Y93D01*
X658Y93D02*
X690Y93D01*
X732Y93D02*
X738Y93D01*
X802Y93D02*
X807Y93D01*
X827Y93D02*
X833Y93D01*
X849Y93D02*
X855Y93D01*
X875Y93D02*
X881Y93D01*
X899Y93D02*
X927Y93D01*
X951Y93D02*
X975Y93D01*
X325Y92D02*
X357Y92D01*
X373Y92D02*
X405Y92D01*
X421Y92D02*
X452Y92D01*
X469Y92D02*
X500Y92D01*
X564Y92D02*
X573Y92D01*
X589Y92D02*
X595Y92D01*
X637Y92D02*
X643Y92D01*
X658Y92D02*
X689Y92D01*
X732Y92D02*
X738Y92D01*
X802Y92D02*
X807Y92D01*
X827Y92D02*
X833Y92D01*
X849Y92D02*
X855Y92D01*
X875Y92D02*
X881Y92D01*
X899Y92D02*
X926Y92D01*
X952Y92D02*
X975Y92D01*
X325Y91D02*
X357Y91D01*
X373Y91D02*
X405Y91D01*
X421Y91D02*
X452Y91D01*
X468Y91D02*
X500Y91D01*
X563Y91D02*
X572Y91D01*
X589Y91D02*
X595Y91D01*
X637Y91D02*
X643Y91D01*
X658Y91D02*
X688Y91D01*
X732Y91D02*
X738Y91D01*
X802Y91D02*
X807Y91D01*
X827Y91D02*
X833Y91D01*
X849Y91D02*
X855Y91D01*
X875Y91D02*
X881Y91D01*
X900Y91D02*
X925Y91D01*
X953Y91D02*
X974Y91D01*
X325Y90D02*
X357Y90D01*
X373Y90D02*
X405Y90D01*
X422Y90D02*
X451Y90D01*
X468Y90D02*
X500Y90D01*
X563Y90D02*
X571Y90D01*
X590Y90D02*
X595Y90D01*
X637Y90D02*
X643Y90D01*
X659Y90D02*
X688Y90D01*
X732Y90D02*
X738Y90D01*
X802Y90D02*
X807Y90D01*
X827Y90D02*
X833Y90D01*
X849Y90D02*
X855Y90D01*
X875Y90D02*
X881Y90D01*
X902Y90D02*
X923Y90D01*
X953Y90D02*
X974Y90D01*
X325Y89D02*
X357Y89D01*
X373Y89D02*
X405Y89D01*
X422Y89D02*
X450Y89D01*
X468Y89D02*
X500Y89D01*
X564Y89D02*
X569Y89D01*
X590Y89D02*
X595Y89D01*
X637Y89D02*
X642Y89D01*
X659Y89D02*
X664Y89D01*
X667Y89D02*
X686Y89D01*
X733Y89D02*
X738Y89D01*
X802Y89D02*
X807Y89D01*
X827Y89D02*
X832Y89D01*
X849Y89D02*
X854Y89D01*
X875Y89D02*
X881Y89D01*
X903Y89D02*
X922Y89D01*
X955Y89D02*
X973Y89D01*
X326Y88D02*
X356Y88D01*
X374Y88D02*
X405Y88D01*
X424Y88D02*
X449Y88D01*
X469Y88D02*
X500Y88D01*
X564Y88D02*
X568Y88D01*
X590Y88D02*
X594Y88D01*
X638Y88D02*
X642Y88D01*
X659Y88D02*
X663Y88D01*
X669Y88D02*
X685Y88D01*
X733Y88D02*
X737Y88D01*
X803Y88D02*
X807Y88D01*
X828Y88D02*
X832Y88D01*
X850Y88D02*
X854Y88D01*
X876Y88D02*
X880Y88D01*
X904Y88D02*
X920Y88D01*
X956Y88D02*
X971Y88D01*
X328Y87D02*
X354Y87D01*
X375Y87D02*
X404Y87D01*
X426Y87D02*
X447Y87D01*
X471Y87D02*
X500Y87D01*
X566Y87D02*
X566Y87D01*
X592Y87D02*
X593Y87D01*
X640Y87D02*
X640Y87D01*
X661Y87D02*
X662Y87D01*
X671Y87D02*
X682Y87D01*
X735Y87D02*
X735Y87D01*
X804Y87D02*
X805Y87D01*
X830Y87D02*
X830Y87D01*
X852Y87D02*
X852Y87D01*
X878Y87D02*
X878Y87D01*
X907Y87D02*
X917Y87D01*
X959Y87D02*
X968Y87D01*
D02*
G04 End of Silk0*
M02*