; NON-PLATED HOLES START AT T1
; THROUGH (PLATED) HOLES START AT T100
M48
INCH
T1C0.125984
T100C0.040000
T101C0.023622
T102C0.038000
T103C0.039370
%
T1
X018500Y001209
X001250Y025209
X018500Y025209
X001250Y001209
T100
X018750Y005209
X018750Y020209
X018750Y019209
X001000Y018209
X001000Y006209
X001000Y017209
X018750Y004209
X018750Y011209
X001000Y012209
X018750Y022209
X001000Y021209
X001000Y007209
X018750Y014209
X018750Y009209
X001000Y023209
X001000Y008209
X001000Y010209
X001000Y016209
X018750Y003209
X018750Y015209
X001000Y020209
X001000Y019209
X018750Y018209
X018750Y006209
X001000Y005209
X001000Y011209
X018750Y012209
X018750Y017209
X001000Y004209
X018750Y007209
X001000Y014209
X001000Y022209
X018750Y021209
X001000Y015209
X018750Y023209
X001000Y009209
X018750Y010209
X018750Y008209
X018750Y016209
X001000Y003209
T101
X008049Y024015
X011450Y025660
X008049Y025660
X011450Y024015
T102
X015000Y025709
X014000Y025709
X017000Y025709
X016000Y025709
T103
X006750Y024709
X006750Y023709
X006750Y025709
X006750Y016709
X006750Y019709
X006750Y017709
X012750Y022709
X006750Y020709
X012750Y021709
X012750Y014709
X012750Y015709
X012750Y013709
X006750Y018709
X012750Y024709
X012750Y016709
X012750Y023709
X012750Y025709
X012750Y019709
X012750Y017709
X006750Y022709
X012750Y020709
X006750Y021709
X006750Y014709
X006750Y015709
X006750Y013709
X012750Y018709
T00
M30
